<svg width="500" height="500" viewBox="0 0 500 500" fill="none" xmlns="http://www.w3.org/2000/svg">
<rect width="500" height="500" fill="white"/>
<path d="M120 32C285.685 32 420 166.315 420 332H120V32Z" fill="white"/>
<path d="M120 32V31.25H119.25V32H120ZM420 332V332.75H420.75V332H420ZM120 332H119.25V332.75H120V332ZM120 32H119.25V33.5H120H120.75V32H120ZM120 36.5H119.25V39.5H120H120.75V36.5H120ZM120 42.5H119.25V45.5H120H120.75V42.5H120ZM120 48.5H119.25V51.5H120H120.75V48.5H120ZM120 54.5H119.25V57.5H120H120.75V54.5H120ZM120 60.5H119.25V63.5H120H120.75V60.5H120ZM120 66.5H119.25V69.5H120H120.75V66.5H120ZM120 72.5H119.25V75.5H120H120.75V72.5H120ZM120 78.5H119.25V81.5H120H120.75V78.5H120ZM120 84.5H119.25V87.5H120H120.75V84.5H120ZM120 90.5H119.25V93.5H120H120.75V90.5H120ZM120 96.5H119.25V99.5H120H120.75V96.5H120ZM120 102.5H119.25V105.5H120H120.75V102.5H120ZM120 108.5H119.25V111.5H120H120.75V108.5H120ZM120 114.5H119.25V117.5H120H120.75V114.5H120ZM120 120.5H119.25V123.5H120H120.75V120.5H120ZM120 126.5H119.25V129.5H120H120.75V126.5H120ZM120 132.5H119.25V135.5H120H120.75V132.5H120ZM120 138.5H119.25V141.5H120H120.75V138.5H120ZM120 144.5H119.25V147.5H120H120.75V144.5H120ZM120 150.5H119.25V153.5H120H120.75V150.5H120ZM120 156.5H119.25V159.5H120H120.75V156.5H120ZM120 162.5H119.25V165.5H120H120.75V162.5H120ZM120 168.5H119.25V171.5H120H120.75V168.5H120ZM120 174.5H119.25V177.5H120H120.75V174.5H120ZM120 180.5H119.25V183.5H120H120.75V180.5H120ZM120 186.5H119.25V189.5H120H120.75V186.5H120ZM120 192.5H119.25V195.5H120H120.75V192.5H120ZM120 198.5H119.25V201.5H120H120.75V198.5H120ZM120 204.5H119.25V207.5H120H120.75V204.5H120ZM120 210.5H119.25V213.5H120H120.75V210.5H120ZM120 216.5H119.25V219.5H120H120.75V216.5H120ZM120 222.5H119.25V225.5H120H120.75V222.5H120ZM120 228.5H119.25V231.5H120H120.75V228.5H120ZM120 234.5H119.25V237.5H120H120.75V234.5H120ZM120 240.5H119.25V243.5H120H120.75V240.5H120ZM120 246.5H119.25V249.5H120H120.75V246.5H120ZM120 252.5H119.25V255.5H120H120.75V252.5H120ZM120 258.5H119.25V261.5H120H120.75V258.5H120ZM120 264.5H119.25V267.5H120H120.75V264.5H120ZM120 270.5H119.25V273.5H120H120.75V270.5H120ZM120 276.5H119.25V279.5H120H120.75V276.5H120ZM120 282.5H119.25V285.5H120H120.75V282.5H120ZM120 288.5H119.25V291.5H120H120.75V288.5H120ZM120 294.5H119.25V297.5H120H120.75V294.5H120ZM120 300.5H119.25V303.5H120H120.75V300.5H120ZM120 306.5H119.25V309.5H120H120.75V306.5H120ZM120 312.5H119.25V315.5H120H120.75V312.5H120ZM120 318.5H119.25V321.5H120H120.75V318.5H120ZM120 324.5H119.25V327.5H120H120.75V324.5H120ZM120 330.5H119.25V332H120H120.75V330.5H120ZM120 332V332.75H121.5V332V331.25H120V332ZM124.5 332V332.75H127.5V332V331.25H124.5V332ZM130.5 332V332.75H133.5V332V331.25H130.5V332ZM136.5 332V332.75H139.5V332V331.25H136.5V332ZM142.5 332V332.75H145.5V332V331.25H142.5V332ZM148.5 332V332.75H151.5V332V331.25H148.5V332ZM154.5 332V332.75H157.5V332V331.25H154.5V332ZM160.5 332V332.75H163.5V332V331.25H160.5V332ZM166.5 332V332.75H169.5V332V331.25H166.5V332ZM172.5 332V332.75H175.5V332V331.25H172.5V332ZM178.5 332V332.75H181.5V332V331.25H178.5V332ZM184.5 332V332.75H187.5V332V331.25H184.5V332ZM190.5 332V332.75H193.5V332V331.25H190.5V332ZM196.5 332V332.75H199.5V332V331.25H196.5V332ZM202.5 332V332.75H205.5V332V331.25H202.5V332ZM208.5 332V332.75H211.5V332V331.25H208.5V332ZM214.5 332V332.75H217.5V332V331.25H214.5V332ZM220.5 332V332.75H223.5V332V331.25H220.5V332ZM226.5 332V332.75H229.5V332V331.25H226.5V332ZM232.5 332V332.75H235.5V332V331.25H232.5V332ZM238.5 332V332.75H241.5V332V331.25H238.5V332ZM244.5 332V332.75H247.5V332V331.25H244.5V332ZM250.5 332V332.75H253.5V332V331.25H250.5V332ZM256.5 332V332.75H259.5V332V331.25H256.5V332ZM262.5 332V332.75H265.5V332V331.25H262.5V332ZM268.5 332V332.75H271.5V332V331.25H268.5V332ZM274.5 332V332.75H277.5V332V331.25H274.5V332ZM280.5 332V332.75H283.5V332V331.25H280.5V332ZM286.5 332V332.75H289.5V332V331.25H286.5V332ZM292.5 332V332.75H295.5V332V331.25H292.5V332ZM298.5 332V332.75H301.5V332V331.25H298.5V332ZM304.5 332V332.75H307.5V332V331.25H304.5V332ZM310.5 332V332.75H313.5V332V331.25H310.5V332ZM316.5 332V332.75H319.5V332V331.25H316.5V332ZM322.5 332V332.75H325.5V332V331.25H322.5V332ZM328.5 332V332.75H331.5V332V331.25H328.5V332ZM334.5 332V332.75H337.5V332V331.25H334.5V332ZM340.5 332V332.75H343.5V332V331.25H340.5V332ZM346.5 332V332.75H349.5V332V331.25H346.5V332ZM352.5 332V332.75H355.5V332V331.25H352.5V332ZM358.5 332V332.75H361.5V332V331.25H358.5V332ZM364.5 332V332.75H367.5V332V331.25H364.5V332ZM370.5 332V332.75H373.5V332V331.25H370.5V332ZM376.5 332V332.75H379.5V332V331.25H376.5V332ZM382.5 332V332.75H385.5V332V331.25H382.5V332ZM388.5 332V332.75H391.5V332V331.25H388.5V332ZM394.5 332V332.75H397.5V332V331.25H394.5V332ZM400.5 332V332.75H403.5V332V331.25H400.5V332ZM406.5 332V332.75H409.5V332V331.25H406.5V332ZM412.5 332V332.75H415.5V332V331.25H412.5V332ZM418.5 332V332.75H420V332V331.25H418.5V332ZM420 332H420.75C420.75 331.499 420.749 330.998 420.746 330.497L419.996 330.501L419.246 330.505C419.249 331.003 419.25 331.501 419.25 332H420ZM419.967 327.508L420.717 327.497C420.702 326.498 420.683 325.5 420.658 324.503L419.909 324.522L419.159 324.54C419.183 325.532 419.203 326.525 419.217 327.519L419.967 327.508ZM419.821 321.543L420.571 321.517C420.537 320.523 420.498 319.53 420.454 318.538L419.705 318.571L418.956 318.604C418.999 319.591 419.038 320.579 419.072 321.568L419.821 321.543ZM419.559 315.597L420.308 315.557C420.254 314.557 420.195 313.558 420.132 312.561L419.383 312.609L418.635 312.657C418.698 313.649 418.757 314.642 418.81 315.637L419.559 315.597ZM419.178 309.629L419.926 309.574C419.853 308.579 419.775 307.586 419.692 306.594L418.945 306.657L418.197 306.719C418.28 307.706 418.358 308.694 418.431 309.684L419.178 309.629ZM418.682 303.693L419.429 303.623C419.336 302.632 419.238 301.642 419.136 300.654L418.39 300.732L417.644 300.809C417.746 301.792 417.843 302.777 417.935 303.763L418.682 303.693ZM418.067 297.756L418.812 297.672C418.699 296.679 418.582 295.688 418.459 294.698L417.715 294.79L416.971 294.882C417.093 295.867 417.21 296.853 417.322 297.841L418.067 297.756ZM417.334 291.832L418.078 291.733C417.946 290.746 417.809 289.761 417.667 288.777L416.925 288.884L416.182 288.991C416.323 289.97 416.459 290.95 416.591 291.932L417.334 291.832ZM416.486 285.942L417.228 285.827C417.075 284.838 416.918 283.851 416.756 282.865L416.016 282.987L415.276 283.108C415.437 284.089 415.593 285.072 415.745 286.056L416.486 285.942ZM415.517 280.042L416.256 279.913C416.084 278.93 415.908 277.949 415.727 276.97L414.989 277.106L414.252 277.243C414.432 278.217 414.607 279.193 414.778 280.171L415.517 280.042ZM414.433 274.181L415.169 274.037C414.979 273.061 414.783 272.086 414.583 271.113L413.849 271.264L413.114 271.415C413.313 272.383 413.507 273.353 413.697 274.325L414.433 274.181ZM413.231 268.337L413.965 268.179C413.754 267.203 413.538 266.228 413.318 265.255L412.586 265.421L411.855 265.587C412.074 266.555 412.289 267.524 412.498 268.496L413.231 268.337ZM411.912 262.516L412.642 262.343C412.412 261.374 412.178 260.406 411.939 259.441L411.211 259.621L410.483 259.802C410.721 260.762 410.954 261.725 411.183 262.689L411.912 262.516ZM410.481 256.736L411.207 256.548C410.957 255.58 410.702 254.614 410.442 253.65L409.718 253.845L408.994 254.04C409.252 254.999 409.506 255.961 409.754 256.924L410.481 256.736ZM408.928 250.965L409.65 250.763C409.381 249.803 409.108 248.845 408.83 247.888L408.11 248.097L407.389 248.307C407.666 249.258 407.938 250.212 408.206 251.168L408.928 250.965ZM407.264 245.241L407.982 245.025C407.694 244.071 407.402 243.12 407.105 242.171L406.39 242.395L405.674 242.619C405.969 243.563 406.26 244.509 406.546 245.458L407.264 245.241ZM405.484 239.547L406.197 239.316C405.89 238.366 405.578 237.418 405.261 236.473L404.55 236.711L403.839 236.949C404.154 237.89 404.464 238.833 404.77 239.778L405.484 239.547ZM403.589 233.887L404.298 233.642C403.973 232.701 403.642 231.762 403.308 230.825L402.601 231.077L401.895 231.329C402.228 232.262 402.557 233.196 402.881 234.133L403.589 233.887ZM401.585 228.276L402.289 228.017C401.944 227.08 401.594 226.145 401.239 225.212L400.538 225.478L399.837 225.744C400.19 226.673 400.538 227.603 400.882 228.536L401.585 228.276ZM399.464 222.693L400.163 222.42C399.799 221.491 399.431 220.565 399.059 219.641L398.363 219.922L397.668 220.202C398.038 221.121 398.404 222.043 398.766 222.966L399.464 222.693ZM397.236 217.164L397.929 216.876C397.547 215.956 397.161 215.038 396.77 214.122L396.08 214.416L395.39 214.71C395.779 215.622 396.163 216.535 396.543 217.451L397.236 217.164ZM394.895 211.675L395.582 211.374C395.181 210.46 394.776 209.548 394.367 208.639L393.683 208.947L392.999 209.255C393.407 210.16 393.81 211.067 394.208 211.976L394.895 211.675ZM392.445 206.234L393.126 205.92C392.708 205.016 392.285 204.114 391.859 203.215L391.181 203.536L390.504 203.858C390.928 204.752 391.349 205.65 391.764 206.549L392.445 206.234ZM389.889 200.849L390.564 200.52C390.127 199.623 389.685 198.728 389.24 197.836L388.569 198.171L387.898 198.506C388.341 199.394 388.78 200.284 389.215 201.177L389.889 200.849ZM387.223 195.508L387.89 195.166C387.436 194.279 386.978 193.394 386.515 192.512L385.851 192.86L385.187 193.208C385.647 194.086 386.103 194.966 386.555 195.849L387.223 195.508ZM384.454 190.228L385.114 189.873C384.642 188.994 384.166 188.119 383.686 187.246L383.029 187.607L382.372 187.969C382.85 188.837 383.323 189.709 383.793 190.583L384.454 190.228ZM381.577 184.999L382.231 184.631C381.741 183.762 381.248 182.896 380.75 182.032L380.1 182.407L379.45 182.781C379.946 183.64 380.437 184.502 380.924 185.367L381.577 184.999ZM378.598 179.831L379.244 179.45C378.738 178.591 378.228 177.736 377.714 176.883L377.072 177.271L376.429 177.658C376.941 178.507 377.449 179.358 377.952 180.212L378.598 179.831ZM375.518 174.724L376.156 174.33C375.632 173.481 375.105 172.635 374.573 171.791L373.938 172.191L373.304 172.591C373.833 173.431 374.358 174.273 374.879 175.117L375.518 174.724ZM372.335 169.676L372.965 169.27C372.425 168.432 371.881 167.597 371.333 166.765L370.707 167.178L370.08 167.59C370.626 168.418 371.167 169.249 371.704 170.082L372.335 169.676ZM369.054 164.697L369.677 164.278C369.12 163.451 368.559 162.626 367.994 161.805L367.376 162.23L366.758 162.654C367.32 163.472 367.878 164.292 368.432 165.116L369.054 164.697ZM365.673 159.779L366.287 159.348C365.714 158.532 365.137 157.719 364.556 156.91L363.947 157.347L363.337 157.784C363.915 158.59 364.489 159.398 365.059 160.21L365.673 159.779ZM362.197 154.932L362.802 154.489C362.213 153.685 361.621 152.884 361.024 152.087L360.423 152.536L359.823 152.985C360.416 153.779 361.006 154.575 361.592 155.375L362.197 154.932ZM358.625 150.155L359.221 149.699C358.616 148.907 358.007 148.117 357.394 147.331L356.803 147.792L356.211 148.253C356.821 149.035 357.427 149.821 358.028 150.61L358.625 150.155ZM354.958 145.448L355.545 144.981C354.925 144.201 354.301 143.424 353.673 142.65L353.091 143.123L352.508 143.595C353.133 144.365 353.754 145.138 354.371 145.915L354.958 145.448ZM351.201 140.816L351.778 140.338C351.142 139.57 350.503 138.805 349.86 138.044L349.287 138.528L348.714 139.011C349.354 139.769 349.99 140.53 350.623 141.295L351.201 140.816ZM347.35 136.258L347.918 135.768C347.268 135.013 346.613 134.262 345.955 133.513L345.392 134.008L344.829 134.503C345.484 135.248 346.135 135.996 346.782 136.748L347.35 136.258ZM343.412 131.778L343.97 131.277C343.305 130.535 342.636 129.797 341.963 129.061L341.41 129.568L340.856 130.074C341.526 130.805 342.191 131.54 342.853 132.279L343.412 131.778ZM339.385 127.376L339.934 126.865C339.253 126.136 338.57 125.411 337.883 124.688L337.339 125.206L336.796 125.723C337.48 126.441 338.16 127.163 338.837 127.888L339.385 127.376ZM335.272 123.055L335.81 122.533C335.116 121.818 334.418 121.106 333.717 120.398L333.184 120.925L332.651 121.453C333.349 122.158 334.043 122.866 334.734 123.578L335.272 123.055ZM331.075 118.816L331.603 118.283C330.895 117.582 330.183 116.884 329.468 116.19L328.945 116.728L328.423 117.266C329.134 117.957 329.843 118.651 330.547 119.349L331.075 118.816ZM326.795 114.661L327.312 114.118C326.59 113.431 325.864 112.747 325.136 112.067L324.624 112.615L324.112 113.163C324.837 113.84 325.559 114.52 326.278 115.204L326.795 114.661ZM322.433 110.591L322.939 110.037C322.204 109.365 321.465 108.696 320.723 108.03L320.222 108.589L319.722 109.147C320.46 109.809 321.195 110.475 321.927 111.144L322.433 110.591ZM317.992 106.608L318.487 106.045C317.739 105.387 316.987 104.733 316.232 104.082L315.742 104.65L315.253 105.218C316.004 105.866 316.752 106.517 317.497 107.172L317.992 106.608ZM313.473 102.714L313.957 102.141C313.195 101.498 312.43 100.858 311.662 100.222L311.184 100.8L310.706 101.378C311.47 102.01 312.231 102.647 312.989 103.287L313.473 102.714ZM308.878 98.9096L309.35 98.3272C308.576 97.6994 307.799 97.0754 307.019 96.4551L306.553 97.0422L306.086 97.6293C306.862 98.2464 307.635 98.8674 308.405 99.492L308.878 98.9096ZM304.209 95.1975L304.669 94.6058C303.883 93.9932 303.094 93.3844 302.301 92.7795L301.846 93.3757L301.391 93.9719C302.18 94.5738 302.965 95.1796 303.748 95.7891L304.209 95.1975ZM299.465 91.5769L299.914 90.9762C299.116 90.3798 298.315 89.7872 297.511 89.1986L297.068 89.8036L296.625 90.4087C297.425 90.9945 298.222 91.5841 299.016 92.1776L299.465 91.5769ZM294.654 88.0537L295.091 87.4442C294.281 86.8634 293.468 86.2864 292.652 85.7135L292.221 86.3272L291.79 86.941C292.602 87.5111 293.411 88.0852 294.217 88.6631L294.654 88.0537ZM289.771 84.6244L290.196 84.0064C289.374 83.4415 288.55 82.8806 287.722 82.3237L287.304 82.9459L286.885 83.5681C287.708 84.1222 288.529 84.6803 289.346 85.2424L289.771 84.6244ZM284.823 81.2938L285.235 80.6675C284.403 80.1194 283.568 79.5753 282.731 79.0353L282.324 79.6657L281.918 80.2961C282.752 80.8334 283.582 81.3748 284.41 81.9201L284.823 81.2938ZM279.809 78.0619L280.209 77.4275C279.366 76.8956 278.52 76.3678 277.671 75.8441L277.277 76.4825L276.883 77.1208C277.728 77.6419 278.57 78.1671 279.409 78.6963L279.809 78.0619ZM274.73 74.9288L275.117 74.2865C274.264 73.7723 273.409 73.2621 272.551 72.756L272.17 73.4021L271.789 74.0481C272.643 74.5516 273.494 75.0593 274.342 75.571L274.73 74.9288ZM269.594 71.9002L269.968 71.2504C269.105 70.7526 268.239 70.2591 267.37 69.7697L267.002 70.4232L266.634 71.0767C267.498 71.5636 268.36 72.0547 269.219 72.5499L269.594 71.9002ZM264.393 68.9713L264.755 68.3142C263.882 67.8339 263.006 67.3578 262.128 66.8859L261.773 67.5466L261.418 68.2073C262.292 68.6768 263.163 69.1505 264.032 69.6284L264.393 68.9713ZM259.141 66.1493L259.489 65.4851C258.607 65.0225 257.722 64.564 256.835 64.1099L256.493 64.7775L256.151 65.4452C257.034 65.897 257.914 66.3532 258.792 66.8135L259.141 66.1493ZM253.83 63.4313L254.165 62.7603C253.273 62.3148 252.378 61.8735 251.48 61.4366L251.152 62.1109L250.824 62.7853C251.716 63.22 252.607 63.659 253.495 64.1024L253.83 63.4313ZM248.464 60.8191L248.786 60.1415C247.887 59.7147 246.985 59.2923 246.081 58.8742L245.766 59.555L245.451 60.2357C246.351 60.6517 247.248 61.072 248.143 61.4967L248.464 60.8191ZM243.053 58.317L243.361 57.6331C242.452 57.2238 241.541 56.8188 240.627 56.4183L240.326 57.1052L240.025 57.7921C240.934 58.1906 241.841 58.5936 242.745 59.0008L243.053 58.317ZM237.584 55.9198L237.879 55.23C236.963 54.8394 236.045 54.4533 235.124 54.0716L234.837 54.7644L234.55 55.4572C235.465 55.8369 236.379 56.2211 237.29 56.6097L237.584 55.9198ZM232.079 53.6368L232.359 52.9412C231.435 52.5688 230.509 52.2009 229.581 51.8375L229.307 52.5359L229.034 53.2343C229.958 53.5959 230.879 53.962 231.799 54.3325L232.079 53.6368ZM226.522 51.4619L226.789 50.7608C225.856 50.4064 224.921 50.0564 223.984 49.7111L223.724 50.4148L223.465 51.1185C224.397 51.4622 225.328 51.8103 226.256 52.163L226.522 51.4619ZM220.924 49.3988L221.176 48.6925C220.239 48.3578 219.3 48.0276 218.358 47.702L218.113 48.4108L217.868 49.1196C218.805 49.4435 219.739 49.7721 220.671 50.1051L220.924 49.3988ZM215.29 47.45L215.528 46.7387C214.582 46.4222 213.635 46.1103 212.685 45.8029L212.454 46.5165L212.223 47.2301C213.168 47.5359 214.111 47.8462 215.052 48.1612L215.29 47.45ZM209.606 45.6106L209.83 44.8947C208.88 44.598 207.929 44.3059 206.976 44.0184L206.759 44.7365L206.543 45.4545C207.491 45.7406 208.438 46.0312 209.382 46.3264L209.606 45.6106ZM203.903 43.8906L204.113 43.1704C203.156 42.8924 202.198 42.6189 201.237 42.3501L201.035 43.0724L200.833 43.7946C201.789 44.0621 202.742 44.3341 203.694 44.6108L203.903 43.8906ZM198.156 42.282L198.351 41.5577C197.386 41.2983 196.42 41.0435 195.452 40.7934L195.265 41.5195L195.077 42.2457C196.04 42.4945 197.001 42.748 197.961 43.0062L198.156 42.282ZM192.379 40.7894L192.56 40.0614C191.594 39.8223 190.627 39.5878 189.658 39.358L189.485 40.0877L189.312 40.8175C190.276 41.0462 191.238 41.2795 192.199 41.5174L192.379 40.7894ZM186.579 39.4141L186.745 38.6826C185.772 38.4622 184.798 38.2465 183.822 38.0356L183.663 38.7687L183.505 39.5018C184.476 39.7116 185.446 39.9263 186.414 40.1456L186.579 39.4141ZM180.737 38.1516L180.888 37.417C179.915 37.2169 178.94 37.0215 177.963 36.8308L177.82 37.5669L177.676 38.303C178.647 38.4927 179.617 38.6872 180.586 38.8862L180.737 38.1516ZM174.894 37.0109L175.031 36.2734C174.051 36.0923 173.071 35.916 172.088 35.7445L171.959 36.4833L171.83 37.2221C172.808 37.3928 173.784 37.5682 174.758 37.7484L174.894 37.0109ZM169.014 35.9842L169.136 35.2441C168.15 35.0821 167.162 34.9249 166.173 34.7725L166.059 35.5138L165.945 36.255C166.929 36.4067 167.911 36.5631 168.892 36.7243L169.014 35.9842ZM163.117 35.0754L163.224 34.333C162.24 34.1914 161.255 34.0546 160.268 33.9225L160.168 34.6659L160.069 35.4093C161.051 35.5407 162.031 35.6768 163.01 35.8177L163.117 35.0754ZM157.211 34.2851L157.303 33.5408C156.313 33.4183 155.322 33.3007 154.329 33.1879L154.244 33.9331L154.16 34.6783C155.148 34.7905 156.134 34.9076 157.119 35.0294L157.211 34.2851ZM151.269 33.61L151.346 32.864C150.358 32.7616 149.369 32.6641 148.378 32.5713L148.308 33.3181L148.238 34.0648C149.224 34.1571 150.209 34.2542 151.192 34.356L151.269 33.61ZM145.344 33.0554L145.407 32.308C144.415 32.2251 143.422 32.1469 142.427 32.0736L142.372 32.8216L142.317 33.5695C143.306 33.6425 144.295 33.7203 145.282 33.8028L145.344 33.0554ZM139.392 32.6167L139.44 31.8682C138.442 31.8046 137.444 31.7458 136.444 31.6919L136.404 32.4409L136.363 33.1898C137.358 33.2434 138.352 33.3019 139.344 33.3652L139.392 32.6167ZM133.43 32.2952L133.463 31.5459C132.471 31.5023 131.478 31.4634 130.484 31.4293L130.458 32.1789L130.432 32.9284C131.422 32.9623 132.41 33.001 133.397 33.0445L133.43 32.2952ZM127.479 32.0914L127.497 31.3416C126.501 31.3172 125.503 31.2977 124.504 31.283L124.493 32.033L124.482 32.7829C125.476 32.7975 126.469 32.8169 127.461 32.8412L127.479 32.0914ZM121.5 32.0037L121.504 31.2537C121.003 31.2512 120.502 31.25 120 31.25V32V32.75C120.499 32.75 120.998 32.7512 121.496 32.7537L121.5 32.0037Z" fill="black"/>
<path d="M120 32L114.226 42L125.773 42L120 32ZM120 332L121 332L121 41L120 41L119 41L119 332L120 332Z" fill="black"/>
<path d="M420 332L410 326.226V337.774L420 332ZM120 332V333H411V332V331H120V332Z" fill="black"/>
<line x1="23.8501" y1="347.011" x2="478.85" y2="278.011" stroke="#CAC9C9" stroke-width="2" stroke-dasharray="4 4"/>
<line x1="24.1732" y1="315.015" x2="479.173" y2="395.015" stroke="#A7A7A7" stroke-width="2" stroke-dasharray="4 4"/>
<path d="M417 287L406.246 282.795L407.981 294.211L417 287ZM121 332L121.15 332.989L408.253 289.341L408.102 288.353L407.952 287.364L120.85 331.011L121 332Z" fill="#CAC9C9"/>
<path d="M412 383L403.147 375.587L401.153 386.961L412 383ZM121 332L120.827 332.985L402.962 382.431L403.135 381.446L403.308 380.461L121.173 331.015L121 332Z" fill="#A7A7A7"/>
<path d="M384.706 383.263H384.635C384.353 383.263 384.141 383.098 384 382.769V365.614L384.035 348.459C384.271 348.153 384.494 348 384.706 348C385.012 348 385.247 348.176 385.412 348.529V382.769C385.224 383.098 385.012 383.263 384.777 383.263H384.706Z" fill="black"/>
<path d="M390.777 368.932C390.777 366.555 391.671 364.296 393.46 362.155C395.248 360.013 397.26 358.931 399.496 358.907C400.696 358.907 401.755 359.484 402.673 360.637C403.049 359.931 403.59 359.578 404.296 359.578C404.602 359.578 404.873 359.672 405.108 359.86C405.344 360.048 405.461 360.284 405.461 360.566C405.461 360.872 405.026 362.755 404.155 366.214C403.285 369.673 402.837 371.626 402.814 372.073C402.814 372.662 402.896 373.05 403.061 373.238C403.226 373.426 403.473 373.532 403.802 373.556C404.014 373.532 404.249 373.426 404.508 373.238C405.002 372.768 405.485 371.638 405.955 369.85C406.097 369.379 406.214 369.132 406.308 369.108C406.355 369.085 406.473 369.073 406.661 369.073H406.803C407.25 369.073 407.473 369.179 407.473 369.391C407.473 369.532 407.414 369.85 407.297 370.344C407.179 370.838 406.944 371.473 406.591 372.25C406.238 373.026 405.861 373.615 405.461 374.015C405.155 374.321 404.779 374.568 404.332 374.756C404.143 374.803 403.861 374.827 403.485 374.827C402.684 374.827 402.014 374.65 401.473 374.297C400.931 373.944 400.578 373.579 400.414 373.203L400.202 372.673C400.178 372.65 400.131 372.662 400.061 372.709C400.014 372.756 399.967 372.803 399.919 372.85C398.531 374.168 397.119 374.827 395.684 374.827C394.389 374.827 393.248 374.356 392.26 373.415C391.271 372.473 390.777 370.979 390.777 368.932ZM402.002 362.896C402.002 362.755 401.943 362.496 401.826 362.119C401.708 361.743 401.437 361.331 401.014 360.884C400.59 360.437 400.049 360.201 399.39 360.178C398.566 360.178 397.778 360.543 397.025 361.272C396.272 362.002 395.684 362.955 395.26 364.131C394.578 365.99 394.095 367.92 393.813 369.92C393.813 369.991 393.813 370.12 393.813 370.308C393.813 370.497 393.801 370.638 393.778 370.732C393.778 371.791 393.989 372.52 394.413 372.92C394.837 373.321 395.342 373.532 395.931 373.556C396.825 373.556 397.707 373.168 398.578 372.391C399.449 371.614 399.967 371.014 400.131 370.591C400.178 370.497 400.496 369.238 401.084 366.814C401.673 364.39 401.979 363.084 402.002 362.896Z" fill="black"/>
<path d="M410.227 348.635C410.25 348.471 410.321 348.329 410.438 348.212C410.556 348.094 410.721 348.024 410.933 348C411.168 348 411.368 348.118 411.533 348.353C411.603 348.518 412.709 351.412 414.851 357.036C416.992 362.661 418.075 365.531 418.098 365.649C418.122 365.767 417.051 368.638 414.886 374.262C412.721 379.886 411.603 382.78 411.533 382.945C411.368 383.18 411.168 383.298 410.933 383.298C410.744 383.298 410.591 383.239 410.474 383.122C410.356 383.004 410.274 382.851 410.227 382.663C410.227 382.545 411.286 379.686 413.403 374.085C415.545 368.508 416.616 365.696 416.616 365.649C416.616 365.602 415.545 362.79 413.403 357.213C411.286 351.612 410.227 348.753 410.227 348.635Z" fill="black"/>
<path d="M73.7875 83.2647H73.7088C73.3938 83.2647 73.1575 83.1 73 82.7705V65.6147L73.0394 48.4589C73.3019 48.153 73.5513 48 73.7875 48C74.1288 48 74.3913 48.1765 74.575 48.5295V82.7705C74.365 83.1 74.1288 83.2647 73.8663 83.2647H73.7875Z" fill="black"/>
<path d="M82.1352 51.6359C82.1352 51.4006 82.1877 51.1299 82.2927 50.824C82.3977 50.5181 82.5552 50.3651 82.7652 50.3651C82.7915 50.3651 83.7365 50.3063 85.6003 50.1886C87.4641 50.0709 88.4222 50.0003 88.4748 49.9768C88.7898 49.9768 88.9473 50.0827 88.9473 50.2945C88.9473 50.5063 88.501 52.1889 87.6085 55.3424C87.3985 56.1425 87.1753 56.9662 86.9391 57.8134C86.7028 58.6606 86.506 59.296 86.3484 59.7196L86.1909 60.3903C86.1909 60.4609 86.2697 60.4256 86.4272 60.2844C87.7135 59.3431 89.0391 58.8724 90.4042 58.8724C92.0317 58.8724 93.3442 59.4137 94.3418 60.4962C95.3393 61.5787 95.8512 62.9437 95.8774 64.591C95.8774 67.2032 94.8405 69.5683 92.7667 71.6863C90.6929 73.8043 88.4616 74.8633 86.0728 74.8633C84.7603 74.8633 83.5659 74.4162 82.4896 73.5219C81.4133 72.6276 80.8621 71.1803 80.8358 69.18V68.8623C80.8358 68.3681 80.9408 67.6856 81.1508 66.8149C81.3608 65.9442 82.004 63.6261 83.0802 59.8608C84.3928 55.2247 85.049 52.7655 85.049 52.4831C85.049 52.2007 84.5503 52.036 83.5528 51.9889C83.4215 51.9889 83.3165 51.9889 83.2377 51.9889H83.0409C82.7784 51.9889 82.6077 51.9889 82.529 51.9889C82.4502 51.9889 82.3584 51.9536 82.2533 51.883C82.1483 51.8124 82.109 51.73 82.1352 51.6359ZM92.4911 63.0025V62.7907C92.4911 61.0492 91.6905 60.1785 90.0892 60.1785C89.6429 60.1785 89.1835 60.2726 88.711 60.4609C88.2385 60.6492 87.8054 60.8963 87.4116 61.2022C87.0178 61.5081 86.6766 61.7905 86.3878 62.0494C86.0991 62.3083 85.8628 62.5671 85.6791 62.826L85.4428 63.1084L84.6159 66.1442C84.0384 68.1681 83.7496 69.6036 83.7496 70.4508C83.7496 71.5804 84.0646 72.4276 84.6947 72.9924C85.1147 73.3689 85.6397 73.5572 86.2697 73.5572C87.136 73.5572 88.0154 73.1807 88.9079 72.4276C89.5642 71.8863 90.0892 71.2274 90.4829 70.4508C90.8767 69.6742 91.3098 68.4387 91.7823 66.7443C92.2548 65.0499 92.4911 63.8026 92.4911 63.0025Z" fill="black"/>
<path d="M98.3187 48.6354C98.345 48.4707 98.4237 48.3295 98.555 48.2118C98.6862 48.0941 98.87 48.0235 99.1062 48C99.3688 48 99.5919 48.1177 99.7756 48.353C99.8544 48.5177 101.088 51.4123 103.477 57.0368C105.866 62.6613 107.073 65.5323 107.1 65.65C107.126 65.7677 105.931 68.6387 103.516 74.2632C101.101 79.8877 99.8544 82.7823 99.7756 82.947C99.5919 83.1823 99.3688 83.3 99.1062 83.3C98.8962 83.3 98.7256 83.2412 98.5944 83.1235C98.4631 83.0058 98.3712 82.8529 98.3187 82.6646C98.3187 82.5469 99.5 79.6876 101.863 74.0867C104.251 68.5093 105.446 65.6971 105.446 65.65C105.446 65.6029 104.251 62.7907 101.863 57.2133C99.5 51.6124 98.3187 48.7531 98.3187 48.6354Z" fill="black"/>
<line x1="33.5608" y1="374.102" x2="438.561" y2="176.102" stroke="#6C6C6C" stroke-width="2" stroke-dasharray="4 4"/>
<line y1="-1" x2="450.809" y2="-1" transform="matrix(0.898384 0.43921 0.43921 -0.898384 34 289)" stroke="#3F3F3F" stroke-width="2" stroke-dasharray="4 4"/>
<line x1="45.3423" y1="397.247" x2="384.342" y2="101.247" stroke="#060606" stroke-width="2" stroke-dasharray="4 4"/>
<path d="M391 199L379.479 198.222L384.566 208.588L391 199ZM122 331L122.441 331.898L383.361 203.862L382.92 202.965L382.48 202.067L121.559 330.102L122 331Z" fill="#6C6C6C"/>
<path d="M346 134L334.668 136.219L342.256 144.923L346 134ZM120 331L120.657 331.754L339.873 140.668L339.216 139.914L338.559 139.16L119.343 330.246L120 331Z" fill="#060606"/>
<path d="M390 464L378.479 464.778L383.566 454.412L390 464ZM121 332L121.441 331.102L382.361 459.138L381.92 460.035L381.48 460.933L120.559 332.898L121 332Z" fill="#3F3F3F"/>
</svg>
