<svg width="500" height="500" viewBox="0 0 500 500" fill="none" xmlns="http://www.w3.org/2000/svg">
<rect width="500" height="500" fill="white"/>
<path d="M120 92C285.685 92 420 226.315 420 392H120V92Z" fill="white"/>
<path d="M120 92V91.25H119.25V92H120ZM420 392V392.75H420.75V392H420ZM120 392H119.25V392.75H120V392ZM120 92H119.25V93.5H120H120.75V92H120ZM120 96.5H119.25V99.5H120H120.75V96.5H120ZM120 102.5H119.25V105.5H120H120.75V102.5H120ZM120 108.5H119.25V111.5H120H120.75V108.5H120ZM120 114.5H119.25V117.5H120H120.75V114.5H120ZM120 120.5H119.25V123.5H120H120.75V120.5H120ZM120 126.5H119.25V129.5H120H120.75V126.5H120ZM120 132.5H119.25V135.5H120H120.75V132.5H120ZM120 138.5H119.25V141.5H120H120.75V138.5H120ZM120 144.5H119.25V147.5H120H120.75V144.5H120ZM120 150.5H119.25V153.5H120H120.75V150.5H120ZM120 156.5H119.25V159.5H120H120.75V156.5H120ZM120 162.5H119.25V165.5H120H120.75V162.5H120ZM120 168.5H119.25V171.5H120H120.75V168.5H120ZM120 174.5H119.25V177.5H120H120.75V174.5H120ZM120 180.5H119.25V183.5H120H120.75V180.5H120ZM120 186.5H119.25V189.5H120H120.75V186.5H120ZM120 192.5H119.25V195.5H120H120.75V192.5H120ZM120 198.5H119.25V201.5H120H120.75V198.5H120ZM120 204.5H119.25V207.5H120H120.75V204.5H120ZM120 210.5H119.25V213.5H120H120.75V210.5H120ZM120 216.5H119.25V219.5H120H120.75V216.5H120ZM120 222.5H119.25V225.5H120H120.75V222.5H120ZM120 228.5H119.25V231.5H120H120.75V228.5H120ZM120 234.5H119.25V237.5H120H120.75V234.5H120ZM120 240.5H119.25V243.5H120H120.75V240.5H120ZM120 246.5H119.25V249.5H120H120.75V246.5H120ZM120 252.5H119.25V255.5H120H120.75V252.5H120ZM120 258.5H119.25V261.5H120H120.75V258.5H120ZM120 264.5H119.25V267.5H120H120.75V264.5H120ZM120 270.5H119.25V273.5H120H120.75V270.5H120ZM120 276.5H119.25V279.5H120H120.75V276.5H120ZM120 282.5H119.25V285.5H120H120.75V282.5H120ZM120 288.5H119.25V291.5H120H120.75V288.5H120ZM120 294.5H119.25V297.5H120H120.75V294.5H120ZM120 300.5H119.25V303.5H120H120.75V300.5H120ZM120 306.5H119.25V309.5H120H120.75V306.5H120ZM120 312.5H119.25V315.5H120H120.75V312.5H120ZM120 318.5H119.25V321.5H120H120.75V318.5H120ZM120 324.5H119.25V327.5H120H120.75V324.5H120ZM120 330.5H119.25V333.5H120H120.75V330.5H120ZM120 336.5H119.25V339.5H120H120.75V336.5H120ZM120 342.5H119.25V345.5H120H120.75V342.5H120ZM120 348.5H119.25V351.5H120H120.75V348.5H120ZM120 354.5H119.25V357.5H120H120.75V354.5H120ZM120 360.5H119.25V363.5H120H120.75V360.5H120ZM120 366.5H119.25V369.5H120H120.75V366.5H120ZM120 372.5H119.25V375.5H120H120.75V372.5H120ZM120 378.5H119.25V381.5H120H120.75V378.5H120ZM120 384.5H119.25V387.5H120H120.75V384.5H120ZM120 390.5H119.25V392H120H120.75V390.5H120ZM120 392V392.75H121.5V392V391.25H120V392ZM124.5 392V392.75H127.5V392V391.25H124.5V392ZM130.5 392V392.75H133.5V392V391.25H130.5V392ZM136.5 392V392.75H139.5V392V391.25H136.5V392ZM142.5 392V392.75H145.5V392V391.25H142.5V392ZM148.5 392V392.75H151.5V392V391.25H148.5V392ZM154.5 392V392.75H157.5V392V391.25H154.5V392ZM160.5 392V392.75H163.5V392V391.25H160.5V392ZM166.5 392V392.75H169.5V392V391.25H166.5V392ZM172.5 392V392.75H175.5V392V391.25H172.5V392ZM178.5 392V392.75H181.5V392V391.25H178.5V392ZM184.5 392V392.75H187.5V392V391.25H184.5V392ZM190.5 392V392.75H193.5V392V391.25H190.5V392ZM196.5 392V392.75H199.5V392V391.25H196.5V392ZM202.5 392V392.75H205.5V392V391.25H202.5V392ZM208.5 392V392.75H211.5V392V391.25H208.5V392ZM214.5 392V392.75H217.5V392V391.25H214.5V392ZM220.5 392V392.75H223.5V392V391.25H220.5V392ZM226.5 392V392.75H229.5V392V391.25H226.5V392ZM232.5 392V392.75H235.5V392V391.25H232.5V392ZM238.5 392V392.75H241.5V392V391.25H238.5V392ZM244.5 392V392.75H247.5V392V391.25H244.5V392ZM250.5 392V392.75H253.5V392V391.25H250.5V392ZM256.5 392V392.75H259.5V392V391.25H256.5V392ZM262.5 392V392.75H265.5V392V391.25H262.5V392ZM268.5 392V392.75H271.5V392V391.25H268.5V392ZM274.5 392V392.75H277.5V392V391.25H274.5V392ZM280.5 392V392.75H283.5V392V391.25H280.5V392ZM286.5 392V392.75H289.5V392V391.25H286.5V392ZM292.5 392V392.75H295.5V392V391.25H292.5V392ZM298.5 392V392.75H301.5V392V391.25H298.5V392ZM304.5 392V392.75H307.5V392V391.25H304.5V392ZM310.5 392V392.75H313.5V392V391.25H310.5V392ZM316.5 392V392.75H319.5V392V391.25H316.5V392ZM322.5 392V392.75H325.5V392V391.25H322.5V392ZM328.5 392V392.75H331.5V392V391.25H328.5V392ZM334.5 392V392.75H337.5V392V391.25H334.5V392ZM340.5 392V392.75H343.5V392V391.25H340.5V392ZM346.5 392V392.75H349.5V392V391.25H346.5V392ZM352.5 392V392.75H355.5V392V391.25H352.5V392ZM358.5 392V392.75H361.5V392V391.25H358.5V392ZM364.5 392V392.75H367.5V392V391.25H364.5V392ZM370.5 392V392.75H373.5V392V391.25H370.5V392ZM376.5 392V392.75H379.5V392V391.25H376.5V392ZM382.5 392V392.75H385.5V392V391.25H382.5V392ZM388.5 392V392.75H391.5V392V391.25H388.5V392ZM394.5 392V392.75H397.5V392V391.25H394.5V392ZM400.5 392V392.75H403.5V392V391.25H400.5V392ZM406.5 392V392.75H409.5V392V391.25H406.5V392ZM412.5 392V392.75H415.5V392V391.25H412.5V392ZM418.5 392V392.75H420V392V391.25H418.5V392ZM420 392H420.75C420.75 391.499 420.749 390.998 420.746 390.497L419.996 390.501L419.246 390.505C419.249 391.003 419.25 391.501 419.25 392H420ZM419.967 387.508L420.717 387.497C420.702 386.498 420.683 385.5 420.658 384.503L419.909 384.522L419.159 384.54C419.183 385.532 419.203 386.525 419.217 387.519L419.967 387.508ZM419.821 381.543L420.571 381.517C420.537 380.523 420.498 379.53 420.454 378.538L419.705 378.571L418.956 378.604C418.999 379.591 419.038 380.579 419.072 381.568L419.821 381.543ZM419.559 375.597L420.308 375.557C420.254 374.557 420.195 373.558 420.132 372.561L419.383 372.609L418.635 372.657C418.698 373.649 418.757 374.642 418.81 375.637L419.559 375.597ZM419.178 369.629L419.926 369.574C419.853 368.579 419.775 367.586 419.692 366.594L418.945 366.657L418.197 366.719C418.28 367.706 418.358 368.694 418.431 369.684L419.178 369.629ZM418.682 363.693L419.429 363.623C419.336 362.632 419.238 361.642 419.136 360.654L418.39 360.732L417.644 360.809C417.746 361.792 417.843 362.777 417.935 363.763L418.682 363.693ZM418.067 357.756L418.812 357.672C418.699 356.679 418.582 355.688 418.459 354.698L417.715 354.79L416.971 354.882C417.092 355.867 417.21 356.853 417.322 357.841L418.067 357.756ZM417.334 351.832L418.078 351.733C417.946 350.746 417.809 349.761 417.667 348.777L416.925 348.884L416.182 348.991C416.323 349.97 416.459 350.95 416.591 351.932L417.334 351.832ZM416.486 345.942L417.228 345.827C417.075 344.838 416.918 343.851 416.756 342.865L416.016 342.987L415.276 343.108C415.437 344.089 415.593 345.072 415.745 346.056L416.486 345.942ZM415.517 340.042L416.256 339.913C416.084 338.93 415.908 337.949 415.727 336.97L414.989 337.106L414.252 337.243C414.432 338.217 414.607 339.193 414.778 340.171L415.517 340.042ZM414.433 334.181L415.169 334.037C414.979 333.061 414.783 332.086 414.583 331.113L413.849 331.264L413.114 331.415C413.313 332.383 413.507 333.353 413.697 334.325L414.433 334.181ZM413.231 328.337L413.965 328.179C413.754 327.203 413.538 326.228 413.318 325.255L412.586 325.421L411.855 325.587C412.074 326.555 412.289 327.524 412.498 328.496L413.231 328.337ZM411.912 322.516L412.642 322.343C412.412 321.374 412.178 320.406 411.939 319.441L411.211 319.621L410.483 319.802C410.721 320.762 410.954 321.725 411.183 322.689L411.912 322.516ZM410.481 316.736L411.207 316.548C410.957 315.58 410.702 314.614 410.442 313.65L409.718 313.845L408.994 314.04C409.252 314.999 409.506 315.961 409.754 316.924L410.481 316.736ZM408.928 310.965L409.65 310.763C409.381 309.803 409.108 308.845 408.83 307.888L408.11 308.097L407.389 308.307C407.666 309.258 407.938 310.212 408.206 311.168L408.928 310.965ZM407.264 305.241L407.982 305.025C407.694 304.071 407.402 303.12 407.105 302.171L406.39 302.395L405.674 302.619C405.969 303.563 406.26 304.509 406.546 305.458L407.264 305.241ZM405.484 299.547L406.197 299.316C405.89 298.366 405.578 297.418 405.261 296.473L404.55 296.711L403.839 296.949C404.154 297.89 404.464 298.833 404.77 299.777L405.484 299.547ZM403.589 293.887L404.298 293.642C403.973 292.701 403.642 291.762 403.308 290.825L402.601 291.077L401.895 291.329C402.228 292.262 402.557 293.196 402.881 294.133L403.589 293.887ZM401.585 288.276L402.289 288.017C401.944 287.08 401.594 286.145 401.239 285.212L400.538 285.478L399.837 285.744C400.19 286.673 400.538 287.603 400.882 288.536L401.585 288.276ZM399.464 282.693L400.163 282.42C399.799 281.491 399.431 280.565 399.059 279.641L398.363 279.922L397.668 280.202C398.038 281.121 398.404 282.043 398.766 282.966L399.464 282.693ZM397.236 277.164L397.929 276.876C397.547 275.956 397.161 275.038 396.77 274.122L396.08 274.416L395.39 274.71C395.779 275.622 396.163 276.535 396.543 277.451L397.236 277.164ZM394.895 271.675L395.582 271.374C395.181 270.46 394.776 269.548 394.367 268.639L393.683 268.947L392.999 269.255C393.407 270.16 393.81 271.067 394.208 271.976L394.895 271.675ZM392.445 266.234L393.126 265.92C392.708 265.016 392.285 264.114 391.859 263.215L391.181 263.536L390.504 263.858C390.928 264.752 391.349 265.65 391.764 266.549L392.445 266.234ZM389.889 260.849L390.564 260.52C390.127 259.623 389.685 258.728 389.24 257.836L388.569 258.171L387.898 258.506C388.341 259.394 388.78 260.284 389.215 261.177L389.889 260.849ZM387.223 255.508L387.89 255.166C387.436 254.279 386.978 253.394 386.515 252.512L385.851 252.86L385.187 253.208C385.647 254.086 386.103 254.966 386.555 255.849L387.223 255.508ZM384.454 250.228L385.114 249.873C384.642 248.994 384.166 248.119 383.686 247.246L383.029 247.607L382.372 247.969C382.85 248.837 383.323 249.709 383.793 250.583L384.454 250.228ZM381.577 244.999L382.231 244.631C381.741 243.762 381.248 242.896 380.75 242.032L380.1 242.407L379.45 242.781C379.946 243.64 380.437 244.502 380.924 245.367L381.577 244.999ZM378.598 239.831L379.244 239.45C378.738 238.591 378.228 237.736 377.714 236.883L377.072 237.271L376.429 237.658C376.941 238.507 377.449 239.358 377.952 240.212L378.598 239.831ZM375.518 234.724L376.156 234.33C375.632 233.481 375.105 232.635 374.573 231.791L373.938 232.191L373.304 232.591C373.833 233.431 374.358 234.273 374.879 235.117L375.518 234.724ZM372.335 229.676L372.965 229.27C372.425 228.432 371.881 227.597 371.333 226.765L370.707 227.178L370.08 227.59C370.626 228.418 371.167 229.249 371.704 230.082L372.335 229.676ZM369.054 224.697L369.677 224.278C369.12 223.451 368.559 222.626 367.994 221.805L367.376 222.23L366.758 222.654C367.32 223.472 367.878 224.292 368.432 225.116L369.054 224.697ZM365.673 219.779L366.287 219.348C365.714 218.532 365.137 217.719 364.556 216.91L363.947 217.347L363.337 217.784C363.915 218.59 364.489 219.398 365.059 220.21L365.673 219.779ZM362.197 214.932L362.802 214.489C362.213 213.685 361.621 212.884 361.024 212.087L360.423 212.536L359.823 212.985C360.416 213.779 361.006 214.575 361.592 215.375L362.197 214.932ZM358.625 210.155L359.221 209.7C358.616 208.907 358.007 208.117 357.394 207.331L356.803 207.792L356.211 208.253C356.821 209.035 357.427 209.821 358.028 210.61L358.625 210.155ZM354.958 205.448L355.545 204.981C354.925 204.201 354.301 203.424 353.673 202.65L353.091 203.123L352.508 203.595C353.133 204.365 353.754 205.138 354.371 205.915L354.958 205.448ZM351.201 200.816L351.778 200.338C351.142 199.57 350.503 198.805 349.86 198.044L349.287 198.528L348.714 199.011C349.354 199.769 349.99 200.53 350.623 201.295L351.201 200.816ZM347.35 196.258L347.918 195.768C347.268 195.013 346.613 194.262 345.955 193.513L345.392 194.008L344.829 194.503C345.484 195.248 346.135 195.996 346.782 196.748L347.35 196.258ZM343.412 191.778L343.97 191.277C343.305 190.535 342.636 189.797 341.963 189.061L341.41 189.568L340.856 190.074C341.526 190.805 342.191 191.54 342.853 192.279L343.412 191.778ZM339.385 187.376L339.934 186.865C339.253 186.136 338.57 185.411 337.883 184.688L337.339 185.206L336.796 185.723C337.48 186.441 338.16 187.163 338.837 187.888L339.385 187.376ZM335.272 183.055L335.81 182.533C335.116 181.818 334.418 181.106 333.717 180.398L333.184 180.925L332.651 181.453C333.349 182.158 334.043 182.866 334.734 183.578L335.272 183.055ZM331.075 178.816L331.603 178.283C330.895 177.582 330.183 176.884 329.468 176.19L328.945 176.728L328.423 177.266C329.134 177.957 329.843 178.651 330.547 179.349L331.075 178.816ZM326.795 174.661L327.312 174.118C326.59 173.431 325.864 172.747 325.136 172.067L324.624 172.615L324.112 173.163C324.837 173.84 325.559 174.52 326.278 175.204L326.795 174.661ZM322.433 170.591L322.939 170.037C322.204 169.365 321.465 168.696 320.723 168.03L320.222 168.589L319.722 169.147C320.46 169.809 321.195 170.475 321.927 171.144L322.433 170.591ZM317.992 166.608L318.487 166.045C317.739 165.387 316.987 164.733 316.232 164.082L315.742 164.65L315.253 165.218C316.004 165.866 316.752 166.517 317.497 167.172L317.992 166.608ZM313.473 162.714L313.957 162.141C313.195 161.498 312.43 160.858 311.662 160.222L311.184 160.8L310.706 161.378C311.47 162.01 312.231 162.647 312.989 163.287L313.473 162.714ZM308.878 158.91L309.35 158.327C308.576 157.699 307.799 157.075 307.019 156.455L306.553 157.042L306.086 157.629C306.862 158.246 307.635 158.867 308.405 159.492L308.878 158.91ZM304.209 155.197L304.669 154.606C303.883 153.993 303.094 153.384 302.301 152.779L301.846 153.376L301.391 153.972C302.18 154.574 302.965 155.18 303.748 155.789L304.209 155.197ZM299.465 151.577L299.914 150.976C299.116 150.38 298.315 149.787 297.511 149.199L297.068 149.804L296.625 150.409C297.425 150.994 298.222 151.584 299.016 152.178L299.465 151.577ZM294.654 148.054L295.091 147.444C294.281 146.863 293.468 146.286 292.652 145.713L292.221 146.327L291.79 146.941C292.602 147.511 293.411 148.085 294.217 148.663L294.654 148.054ZM289.771 144.624L290.196 144.006C289.374 143.441 288.55 142.881 287.722 142.324L287.304 142.946L286.885 143.568C287.708 144.122 288.529 144.68 289.346 145.242L289.771 144.624ZM284.823 141.294L285.235 140.667C284.403 140.119 283.568 139.575 282.731 139.035L282.324 139.666L281.918 140.296C282.752 140.833 283.582 141.375 284.41 141.92L284.823 141.294ZM279.809 138.062L280.209 137.428C279.366 136.896 278.52 136.368 277.671 135.844L277.277 136.482L276.883 137.121C277.728 137.642 278.57 138.167 279.409 138.696L279.809 138.062ZM274.73 134.929L275.117 134.287C274.264 133.772 273.409 133.262 272.551 132.756L272.17 133.402L271.789 134.048C272.643 134.552 273.494 135.059 274.342 135.571L274.73 134.929ZM269.594 131.9L269.968 131.25C269.105 130.753 268.239 130.259 267.37 129.77L267.002 130.423L266.634 131.077C267.498 131.564 268.36 132.055 269.219 132.55L269.594 131.9ZM264.393 128.971L264.755 128.314C263.882 127.834 263.006 127.358 262.128 126.886L261.773 127.547L261.418 128.207C262.292 128.677 263.163 129.151 264.032 129.628L264.393 128.971ZM259.141 126.149L259.489 125.485C258.607 125.022 257.722 124.564 256.835 124.11L256.493 124.778L256.151 125.445C257.034 125.897 257.914 126.353 258.792 126.814L259.141 126.149ZM253.83 123.431L254.165 122.76C253.273 122.315 252.378 121.874 251.48 121.437L251.152 122.111L250.824 122.785C251.716 123.22 252.607 123.659 253.495 124.102L253.83 123.431ZM248.464 120.819L248.786 120.142C247.887 119.715 246.985 119.292 246.081 118.874L245.766 119.555L245.451 120.236C246.351 120.652 247.248 121.072 248.143 121.497L248.464 120.819ZM243.053 118.317L243.361 117.633C242.452 117.224 241.541 116.819 240.627 116.418L240.326 117.105L240.025 117.792C240.934 118.191 241.841 118.594 242.745 119.001L243.053 118.317ZM237.584 115.92L237.879 115.23C236.963 114.839 236.045 114.453 235.124 114.072L234.837 114.764L234.55 115.457C235.465 115.837 236.379 116.221 237.29 116.61L237.584 115.92ZM232.079 113.637L232.359 112.941C231.435 112.569 230.509 112.201 229.581 111.838L229.307 112.536L229.034 113.234C229.958 113.596 230.879 113.962 231.799 114.332L232.079 113.637ZM226.522 111.462L226.789 110.761C225.856 110.406 224.921 110.056 223.983 109.711L223.724 110.415L223.465 111.119C224.397 111.462 225.328 111.81 226.256 112.163L226.522 111.462ZM220.924 109.399L221.176 108.692C220.239 108.358 219.3 108.028 218.358 107.702L218.113 108.411L217.868 109.12C218.805 109.444 219.739 109.772 220.671 110.105L220.924 109.399ZM215.29 107.45L215.528 106.739C214.582 106.422 213.635 106.11 212.685 105.803L212.454 106.517L212.223 107.23C213.168 107.536 214.111 107.846 215.052 108.161L215.29 107.45ZM209.606 105.611L209.83 104.895C208.88 104.598 207.929 104.306 206.976 104.018L206.759 104.736L206.543 105.455C207.491 105.741 208.438 106.031 209.382 106.326L209.606 105.611ZM203.903 103.891L204.113 103.17C203.156 102.892 202.198 102.619 201.237 102.35L201.035 103.072L200.833 103.795C201.789 104.062 202.742 104.334 203.694 104.611L203.903 103.891ZM198.156 102.282L198.351 101.558C197.386 101.298 196.42 101.043 195.452 100.793L195.265 101.52L195.077 102.246C196.04 102.495 197.001 102.748 197.961 103.006L198.156 102.282ZM192.379 100.789L192.56 100.061C191.594 99.8223 190.627 99.5878 189.658 99.358L189.485 100.088L189.312 100.817C190.276 101.046 191.238 101.279 192.199 101.517L192.379 100.789ZM186.579 99.4141L186.745 98.6826C185.772 98.4622 184.798 98.2465 183.822 98.0356L183.663 98.7687L183.505 99.5018C184.476 99.7116 185.446 99.9263 186.414 100.146L186.579 99.4141ZM180.737 98.1516L180.888 97.417C179.915 97.2169 178.94 97.0215 177.963 96.8308L177.82 97.5669L177.676 98.303C178.647 98.4927 179.617 98.6872 180.586 98.8862L180.737 98.1516ZM174.894 97.0109L175.031 96.2734C174.051 96.0923 173.071 95.916 172.088 95.7445L171.959 96.4833L171.83 97.2221C172.808 97.3928 173.784 97.5682 174.758 97.7484L174.894 97.0109ZM169.014 95.9842L169.136 95.2441C168.15 95.0821 167.162 94.9249 166.173 94.7725L166.059 95.5138L165.945 96.255C166.929 96.4067 167.911 96.5631 168.892 96.7243L169.014 95.9842ZM163.117 95.0754L163.224 94.333C162.24 94.1914 161.255 94.0546 160.268 93.9225L160.168 94.6659L160.069 95.4093C161.051 95.5407 162.031 95.6768 163.01 95.8177L163.117 95.0754ZM157.211 94.2851L157.303 93.5408C156.313 93.4183 155.322 93.3007 154.329 93.1879L154.244 93.9331L154.16 94.6783C155.148 94.7905 156.134 94.9076 157.119 95.0294L157.211 94.2851ZM151.269 93.61L151.346 92.864C150.358 92.7616 149.369 92.6641 148.378 92.5713L148.308 93.3181L148.238 94.0648C149.224 94.1571 150.209 94.2542 151.192 94.356L151.269 93.61ZM145.344 93.0554L145.407 92.308C144.415 92.2251 143.422 92.1469 142.427 92.0736L142.372 92.8216L142.317 93.5695C143.306 93.6425 144.295 93.7203 145.282 93.8028L145.344 93.0554ZM139.392 92.6167L139.44 91.8682C138.442 91.8046 137.444 91.7458 136.444 91.6919L136.404 92.4409L136.363 93.1898C137.358 93.2434 138.352 93.3019 139.344 93.3652L139.392 92.6167ZM133.43 92.2952L133.463 91.5459C132.471 91.5023 131.478 91.4634 130.484 91.4293L130.458 92.1789L130.432 92.9284C131.422 92.9623 132.41 93.001 133.397 93.0445L133.43 92.2952ZM127.479 92.0914L127.497 91.3416C126.501 91.3172 125.503 91.2977 124.504 91.283L124.493 92.033L124.482 92.7829C125.476 92.7975 126.469 92.8169 127.461 92.8412L127.479 92.0914ZM121.5 92.0037L121.504 91.2537C121.003 91.2512 120.502 91.25 120 91.25V92V92.75C120.499 92.75 120.998 92.7512 121.496 92.7537L121.5 92.0037Z" fill="black"/>
<path d="M120 92L114.226 102L125.774 102L120 92ZM120 392L121 392L121 101L120 101L119 101L119 392L120 392Z" fill="black"/>
<path d="M420 392L410 386.226V397.774L420 392ZM120 392V393H411V392V391H120V392Z" fill="black"/>
<line x1="23.8586" y1="405.01" x2="478.859" y2="340.01" stroke="#FE9409" stroke-width="2" stroke-dasharray="4 4"/>
<path d="M417 349L406.274 344.724L407.934 356.151L417 349ZM121 392L121.144 392.99L408.237 351.283L408.093 350.294L407.95 349.304L120.856 391.01L121 392Z" fill="#FE9409"/>
<path d="M384.706 441.263H384.635C384.353 441.263 384.141 441.098 384 440.769V423.614L384.035 406.459C384.271 406.153 384.494 406 384.706 406C385.012 406 385.247 406.176 385.412 406.529V440.769C385.224 441.098 385.012 441.263 384.777 441.263H384.706Z" fill="black"/>
<path d="M390.777 426.932C390.777 424.555 391.671 422.296 393.46 420.155C395.248 418.013 397.26 416.931 399.496 416.907C400.696 416.907 401.755 417.484 402.673 418.637C403.049 417.931 403.59 417.578 404.296 417.578C404.602 417.578 404.873 417.672 405.108 417.86C405.344 418.048 405.461 418.284 405.461 418.566C405.461 418.872 405.026 420.755 404.155 424.214C403.285 427.673 402.837 429.626 402.814 430.073C402.814 430.662 402.896 431.05 403.061 431.238C403.226 431.426 403.473 431.532 403.802 431.556C404.014 431.532 404.249 431.426 404.508 431.238C405.002 430.768 405.485 429.638 405.955 427.85C406.097 427.379 406.214 427.132 406.308 427.108C406.356 427.085 406.473 427.073 406.661 427.073H406.803C407.25 427.073 407.473 427.179 407.473 427.391C407.473 427.532 407.414 427.85 407.297 428.344C407.179 428.838 406.944 429.473 406.591 430.25C406.238 431.026 405.861 431.615 405.461 432.015C405.155 432.321 404.779 432.568 404.332 432.756C404.143 432.803 403.861 432.827 403.485 432.827C402.684 432.827 402.014 432.65 401.473 432.297C400.931 431.944 400.578 431.579 400.414 431.203L400.202 430.673C400.178 430.65 400.131 430.662 400.061 430.709C400.014 430.756 399.967 430.803 399.919 430.85C398.531 432.168 397.119 432.827 395.684 432.827C394.389 432.827 393.248 432.356 392.26 431.415C391.271 430.473 390.777 428.979 390.777 426.932ZM402.002 420.896C402.002 420.755 401.943 420.496 401.826 420.119C401.708 419.743 401.437 419.331 401.014 418.884C400.59 418.437 400.049 418.201 399.39 418.178C398.566 418.178 397.778 418.543 397.025 419.272C396.272 420.002 395.684 420.955 395.26 422.131C394.578 423.99 394.095 425.92 393.813 427.92C393.813 427.991 393.813 428.12 393.813 428.308C393.813 428.497 393.801 428.638 393.778 428.732C393.778 429.791 393.989 430.52 394.413 430.92C394.837 431.321 395.342 431.532 395.931 431.556C396.825 431.556 397.707 431.168 398.578 430.391C399.449 429.614 399.967 429.014 400.131 428.591C400.178 428.497 400.496 427.238 401.084 424.814C401.673 422.39 401.979 421.084 402.002 420.896Z" fill="black"/>
<path d="M410.227 406.635C410.25 406.471 410.321 406.329 410.438 406.212C410.556 406.094 410.721 406.024 410.932 406C411.168 406 411.368 406.118 411.533 406.353C411.603 406.518 412.709 409.412 414.851 415.036C416.992 420.661 418.074 423.531 418.098 423.649C418.122 423.767 417.051 426.638 414.886 432.262C412.721 437.886 411.603 440.78 411.533 440.945C411.368 441.18 411.168 441.298 410.932 441.298C410.744 441.298 410.591 441.239 410.474 441.122C410.356 441.004 410.274 440.851 410.227 440.663C410.227 440.545 411.285 437.686 413.403 432.085C415.545 426.508 416.615 423.696 416.615 423.649C416.615 423.602 415.545 420.79 413.403 415.213C411.285 409.612 410.227 406.753 410.227 406.635Z" fill="black"/>
<path d="M76.7875 145.265H76.7088C76.3938 145.265 76.1575 145.1 76 144.77V127.615L76.0394 110.459C76.3019 110.153 76.5513 110 76.7875 110C77.1288 110 77.3913 110.176 77.575 110.529V144.77C77.365 145.1 77.1288 145.265 76.8663 145.265H76.7875Z" fill="black"/>
<path d="M85.1352 113.636C85.1352 113.401 85.1877 113.13 85.2927 112.824C85.3977 112.518 85.5552 112.365 85.7652 112.365C85.7915 112.365 86.7365 112.306 88.6003 112.189C90.4641 112.071 91.4222 112 91.4748 111.977C91.7898 111.977 91.9473 112.083 91.9473 112.294C91.9473 112.506 91.501 114.189 90.6085 117.342C90.3985 118.143 90.1753 118.966 89.9391 119.813C89.7028 120.661 89.506 121.296 89.3484 121.72L89.1909 122.39C89.1909 122.461 89.2697 122.426 89.4272 122.284C90.7135 121.343 92.0391 120.872 93.4042 120.872C95.0317 120.872 96.3442 121.414 97.3418 122.496C98.3393 123.579 98.8512 124.944 98.8774 126.591C98.8774 129.203 97.8405 131.568 95.7667 133.686C93.6929 135.804 91.4616 136.863 89.0728 136.863C87.7603 136.863 86.5659 136.416 85.4896 135.522C84.4133 134.628 83.8621 133.18 83.8358 131.18V130.862C83.8358 130.368 83.9408 129.686 84.1508 128.815C84.3608 127.944 85.004 125.626 86.0802 121.861C87.3928 117.225 88.049 114.765 88.049 114.483C88.049 114.201 87.5503 114.036 86.5528 113.989C86.4215 113.989 86.3165 113.989 86.2377 113.989H86.0409C85.7784 113.989 85.6077 113.989 85.529 113.989C85.4502 113.989 85.3584 113.954 85.2533 113.883C85.1483 113.812 85.109 113.73 85.1352 113.636ZM95.4911 125.002V124.791C95.4911 123.049 94.6905 122.178 93.0892 122.178C92.6429 122.178 92.1835 122.273 91.711 122.461C91.2385 122.649 90.8054 122.896 90.4116 123.202C90.0178 123.508 89.6766 123.791 89.3878 124.049C89.0991 124.308 88.8628 124.567 88.6791 124.826L88.4428 125.108L87.6159 128.144C87.0384 130.168 86.7496 131.604 86.7496 132.451C86.7496 133.58 87.0646 134.428 87.6947 134.992C88.1147 135.369 88.6397 135.557 89.2697 135.557C90.136 135.557 91.0154 135.181 91.9079 134.428C92.5642 133.886 93.0892 133.227 93.4829 132.451C93.8767 131.674 94.3098 130.439 94.7823 128.744C95.2548 127.05 95.4911 125.803 95.4911 125.002Z" fill="black"/>
<path d="M101.319 110.635C101.345 110.471 101.424 110.329 101.555 110.212C101.686 110.094 101.87 110.024 102.106 110C102.369 110 102.592 110.118 102.776 110.353C102.854 110.518 104.088 113.412 106.477 119.037C108.866 124.661 110.073 127.532 110.1 127.65C110.126 127.768 108.931 130.639 106.516 136.263C104.101 141.888 102.854 144.782 102.776 144.947C102.592 145.182 102.369 145.3 102.106 145.3C101.896 145.3 101.726 145.241 101.594 145.124C101.463 145.006 101.371 144.853 101.319 144.665C101.319 144.547 102.5 141.688 104.863 136.087C107.251 130.509 108.446 127.697 108.446 127.65C108.446 127.603 107.251 124.791 104.863 119.213C102.5 113.612 101.319 110.753 101.319 110.635Z" fill="black"/>
<path d="M357.753 341.6H357.677C357.376 341.6 357.151 341.424 357 341.073V322.781L357.038 304.489C357.289 304.163 357.527 304 357.753 304C358.079 304 358.33 304.188 358.506 304.565V341.073C358.305 341.424 358.079 341.6 357.828 341.6H357.753Z" fill="#FE9409"/>
<path d="M367.915 321.351C367.915 320.548 368.116 319.732 368.517 318.904C368.919 318.076 369.621 317.311 370.625 316.609C371.628 315.906 372.845 315.567 374.276 315.592C375.831 315.592 376.96 315.931 377.663 316.609C378.366 317.286 378.729 318.039 378.754 318.867C378.754 319.67 378.541 320.259 378.115 320.636C377.688 321.012 377.211 321.213 376.684 321.238C376.358 321.238 376.057 321.138 375.781 320.937C375.505 320.736 375.355 320.41 375.329 319.958C375.329 319.557 375.442 319.206 375.668 318.904C375.894 318.603 376.107 318.378 376.308 318.227C376.509 318.076 376.672 318.001 376.797 318.001C376.822 318.001 376.835 317.989 376.835 317.964C376.835 317.888 376.747 317.775 376.572 317.625C376.396 317.474 376.082 317.336 375.631 317.211C375.179 317.085 374.69 317.01 374.163 316.985C372.958 316.985 372.08 317.311 371.528 317.964C370.976 318.616 370.688 319.281 370.662 319.958C370.662 320.586 370.901 321.025 371.378 321.276C371.854 321.527 372.544 321.74 373.448 321.915C374.351 322.091 375.003 322.279 375.405 322.48C377.061 323.208 377.889 324.412 377.889 326.093C377.889 326.796 377.751 327.498 377.475 328.201C377.199 328.903 376.785 329.606 376.233 330.309C375.681 331.011 374.89 331.563 373.862 331.965C372.833 332.366 371.654 332.579 370.324 332.605C368.392 332.605 367.024 332.241 366.221 331.513C365.418 330.785 365.004 329.932 364.979 328.954C364.979 327.975 365.243 327.273 365.77 326.846C366.296 326.419 366.848 326.206 367.426 326.206C367.802 326.206 368.153 326.319 368.479 326.545C368.806 326.771 368.981 327.16 369.006 327.712C369.006 328.364 368.781 328.916 368.329 329.368C367.877 329.819 367.488 330.045 367.162 330.045C367.112 330.07 367.074 330.083 367.049 330.083C367.024 330.083 367.012 330.108 367.012 330.158C367.037 330.233 367.137 330.334 367.313 330.459C367.488 330.585 367.877 330.748 368.479 330.948C369.082 331.149 369.772 331.237 370.55 331.212C371.453 331.212 372.231 331.074 372.883 330.798C373.535 330.522 374.012 330.171 374.313 329.744C374.614 329.318 374.828 328.929 374.953 328.577C375.079 328.226 375.141 327.912 375.141 327.636C375.141 326.934 374.878 326.407 374.351 326.056C373.824 325.704 373.222 325.491 372.544 325.416C371.867 325.34 371.127 325.152 370.324 324.851C369.521 324.55 368.931 324.111 368.555 323.534C368.128 322.907 367.915 322.179 367.915 321.351Z" fill="#FE9409"/>
<path d="M382.706 304.677C382.732 304.502 382.807 304.351 382.932 304.226C383.058 304.1 383.233 304.025 383.459 304C383.71 304 383.923 304.125 384.099 304.376C384.174 304.552 385.354 307.638 387.637 313.635C389.92 319.632 391.074 322.693 391.1 322.819C391.125 322.944 389.983 326.005 387.675 332.002C385.366 337.999 384.174 341.085 384.099 341.261C383.923 341.512 383.71 341.638 383.459 341.638C383.258 341.638 383.095 341.575 382.97 341.449C382.844 341.324 382.757 341.161 382.706 340.96C382.706 340.835 383.836 337.786 386.094 331.814C388.377 325.867 389.519 322.869 389.519 322.819C389.519 322.769 388.377 319.77 386.094 313.823C383.836 307.852 382.706 304.803 382.706 304.677Z" fill="#FE9409"/>
</svg>
