<svg width="500" height="500" viewBox="0 0 500 500" fill="none" xmlns="http://www.w3.org/2000/svg">
<rect width="500" height="500" fill="white"/>
<path d="M120 92C285.685 92 420 226.315 420 392H120V92Z" fill="white"/>
<path d="M120 92V91.25H119.25V92H120ZM420 392V392.75H420.75V392H420ZM120 392H119.25V392.75H120V392ZM120 92H119.25V93.5H120H120.75V92H120ZM120 96.5H119.25V99.5H120H120.75V96.5H120ZM120 102.5H119.25V105.5H120H120.75V102.5H120ZM120 108.5H119.25V111.5H120H120.75V108.5H120ZM120 114.5H119.25V117.5H120H120.75V114.5H120ZM120 120.5H119.25V123.5H120H120.75V120.5H120ZM120 126.5H119.25V129.5H120H120.75V126.5H120ZM120 132.5H119.25V135.5H120H120.75V132.5H120ZM120 138.5H119.25V141.5H120H120.75V138.5H120ZM120 144.5H119.25V147.5H120H120.75V144.5H120ZM120 150.5H119.25V153.5H120H120.75V150.5H120ZM120 156.5H119.25V159.5H120H120.75V156.5H120ZM120 162.5H119.25V165.5H120H120.75V162.5H120ZM120 168.5H119.25V171.5H120H120.75V168.5H120ZM120 174.5H119.25V177.5H120H120.75V174.5H120ZM120 180.5H119.25V183.5H120H120.75V180.5H120ZM120 186.5H119.25V189.5H120H120.75V186.5H120ZM120 192.5H119.25V195.5H120H120.75V192.5H120ZM120 198.5H119.25V201.5H120H120.75V198.5H120ZM120 204.5H119.25V207.5H120H120.75V204.5H120ZM120 210.5H119.25V213.5H120H120.75V210.5H120ZM120 216.5H119.25V219.5H120H120.75V216.5H120ZM120 222.5H119.25V225.5H120H120.75V222.5H120ZM120 228.5H119.25V231.5H120H120.75V228.5H120ZM120 234.5H119.25V237.5H120H120.75V234.5H120ZM120 240.5H119.25V243.5H120H120.75V240.5H120ZM120 246.5H119.25V249.5H120H120.75V246.5H120ZM120 252.5H119.25V255.5H120H120.75V252.5H120ZM120 258.5H119.25V261.5H120H120.75V258.5H120ZM120 264.5H119.25V267.5H120H120.75V264.5H120ZM120 270.5H119.25V273.5H120H120.75V270.5H120ZM120 276.5H119.25V279.5H120H120.75V276.5H120ZM120 282.5H119.25V285.5H120H120.75V282.5H120ZM120 288.5H119.25V291.5H120H120.75V288.5H120ZM120 294.5H119.25V297.5H120H120.75V294.5H120ZM120 300.5H119.25V303.5H120H120.75V300.5H120ZM120 306.5H119.25V309.5H120H120.75V306.5H120ZM120 312.5H119.25V315.5H120H120.75V312.5H120ZM120 318.5H119.25V321.5H120H120.75V318.5H120ZM120 324.5H119.25V327.5H120H120.75V324.5H120ZM120 330.5H119.25V333.5H120H120.75V330.5H120ZM120 336.5H119.25V339.5H120H120.75V336.5H120ZM120 342.5H119.25V345.5H120H120.75V342.5H120ZM120 348.5H119.25V351.5H120H120.75V348.5H120ZM120 354.5H119.25V357.5H120H120.75V354.5H120ZM120 360.5H119.25V363.5H120H120.75V360.5H120ZM120 366.5H119.25V369.5H120H120.75V366.5H120ZM120 372.5H119.25V375.5H120H120.75V372.5H120ZM120 378.5H119.25V381.5H120H120.75V378.5H120ZM120 384.5H119.25V387.5H120H120.75V384.5H120ZM120 390.5H119.25V392H120H120.75V390.5H120ZM120 392V392.75H121.5V392V391.25H120V392ZM124.5 392V392.75H127.5V392V391.25H124.5V392ZM130.5 392V392.75H133.5V392V391.25H130.5V392ZM136.5 392V392.75H139.5V392V391.25H136.5V392ZM142.5 392V392.75H145.5V392V391.25H142.5V392ZM148.5 392V392.75H151.5V392V391.25H148.5V392ZM154.5 392V392.75H157.5V392V391.25H154.5V392ZM160.5 392V392.75H163.5V392V391.25H160.5V392ZM166.5 392V392.75H169.5V392V391.25H166.5V392ZM172.5 392V392.75H175.5V392V391.25H172.5V392ZM178.5 392V392.75H181.5V392V391.25H178.5V392ZM184.5 392V392.75H187.5V392V391.25H184.5V392ZM190.5 392V392.75H193.5V392V391.25H190.5V392ZM196.5 392V392.75H199.5V392V391.25H196.5V392ZM202.5 392V392.75H205.5V392V391.25H202.5V392ZM208.5 392V392.75H211.5V392V391.25H208.5V392ZM214.5 392V392.75H217.5V392V391.25H214.5V392ZM220.5 392V392.75H223.5V392V391.25H220.5V392ZM226.5 392V392.75H229.5V392V391.25H226.5V392ZM232.5 392V392.75H235.5V392V391.25H232.5V392ZM238.5 392V392.75H241.5V392V391.25H238.5V392ZM244.5 392V392.75H247.5V392V391.25H244.5V392ZM250.5 392V392.75H253.5V392V391.25H250.5V392ZM256.5 392V392.75H259.5V392V391.25H256.5V392ZM262.5 392V392.75H265.5V392V391.25H262.5V392ZM268.5 392V392.75H271.5V392V391.25H268.5V392ZM274.5 392V392.75H277.5V392V391.25H274.5V392ZM280.5 392V392.75H283.5V392V391.25H280.5V392ZM286.5 392V392.75H289.5V392V391.25H286.5V392ZM292.5 392V392.75H295.5V392V391.25H292.5V392ZM298.5 392V392.75H301.5V392V391.25H298.5V392ZM304.5 392V392.75H307.5V392V391.25H304.5V392ZM310.5 392V392.75H313.5V392V391.25H310.5V392ZM316.5 392V392.75H319.5V392V391.25H316.5V392ZM322.5 392V392.75H325.5V392V391.25H322.5V392ZM328.5 392V392.75H331.5V392V391.25H328.5V392ZM334.5 392V392.75H337.5V392V391.25H334.5V392ZM340.5 392V392.75H343.5V392V391.25H340.5V392ZM346.5 392V392.75H349.5V392V391.25H346.5V392ZM352.5 392V392.75H355.5V392V391.25H352.5V392ZM358.5 392V392.75H361.5V392V391.25H358.5V392ZM364.5 392V392.75H367.5V392V391.25H364.5V392ZM370.5 392V392.75H373.5V392V391.25H370.5V392ZM376.5 392V392.75H379.5V392V391.25H376.5V392ZM382.5 392V392.75H385.5V392V391.25H382.5V392ZM388.5 392V392.75H391.5V392V391.25H388.5V392ZM394.5 392V392.75H397.5V392V391.25H394.5V392ZM400.5 392V392.75H403.5V392V391.25H400.5V392ZM406.5 392V392.75H409.5V392V391.25H406.5V392ZM412.5 392V392.75H415.5V392V391.25H412.5V392ZM418.5 392V392.75H420V392V391.25H418.5V392ZM420 392H420.75C420.75 391.499 420.749 390.998 420.746 390.497L419.996 390.501L419.246 390.505C419.249 391.003 419.25 391.501 419.25 392H420ZM419.967 387.508L420.717 387.497C420.702 386.498 420.683 385.5 420.658 384.503L419.909 384.522L419.159 384.54C419.183 385.532 419.203 386.525 419.217 387.519L419.967 387.508ZM419.821 381.543L420.571 381.517C420.537 380.523 420.498 379.53 420.454 378.538L419.705 378.571L418.956 378.604C418.999 379.591 419.038 380.579 419.072 381.568L419.821 381.543ZM419.559 375.597L420.308 375.557C420.254 374.557 420.195 373.558 420.132 372.561L419.383 372.609L418.635 372.657C418.698 373.649 418.757 374.642 418.81 375.637L419.559 375.597ZM419.178 369.629L419.926 369.574C419.853 368.579 419.775 367.586 419.692 366.594L418.945 366.657L418.197 366.719C418.28 367.706 418.358 368.694 418.431 369.684L419.178 369.629ZM418.682 363.693L419.429 363.623C419.336 362.632 419.238 361.642 419.136 360.654L418.39 360.732L417.644 360.809C417.746 361.792 417.843 362.777 417.935 363.763L418.682 363.693ZM418.067 357.756L418.812 357.672C418.699 356.679 418.582 355.688 418.459 354.698L417.715 354.79L416.971 354.882C417.092 355.867 417.21 356.853 417.322 357.841L418.067 357.756ZM417.334 351.832L418.078 351.733C417.946 350.746 417.809 349.761 417.667 348.777L416.925 348.884L416.182 348.991C416.323 349.97 416.459 350.95 416.591 351.932L417.334 351.832ZM416.486 345.942L417.228 345.827C417.075 344.838 416.918 343.851 416.756 342.865L416.016 342.987L415.276 343.108C415.437 344.089 415.593 345.072 415.745 346.056L416.486 345.942ZM415.517 340.042L416.256 339.913C416.084 338.93 415.908 337.949 415.727 336.97L414.989 337.106L414.252 337.243C414.432 338.217 414.607 339.193 414.778 340.171L415.517 340.042ZM414.433 334.181L415.169 334.037C414.979 333.061 414.783 332.086 414.583 331.113L413.849 331.264L413.114 331.415C413.313 332.383 413.507 333.353 413.697 334.325L414.433 334.181ZM413.231 328.337L413.965 328.179C413.754 327.203 413.538 326.228 413.318 325.255L412.586 325.421L411.855 325.587C412.074 326.555 412.289 327.524 412.498 328.496L413.231 328.337ZM411.912 322.516L412.642 322.343C412.412 321.374 412.178 320.406 411.939 319.441L411.211 319.621L410.483 319.802C410.721 320.762 410.954 321.725 411.183 322.689L411.912 322.516ZM410.481 316.736L411.207 316.548C410.957 315.58 410.702 314.614 410.442 313.65L409.718 313.845L408.994 314.04C409.252 314.999 409.506 315.961 409.754 316.924L410.481 316.736ZM408.928 310.965L409.65 310.763C409.381 309.803 409.108 308.845 408.83 307.888L408.11 308.097L407.389 308.307C407.666 309.258 407.938 310.212 408.206 311.168L408.928 310.965ZM407.264 305.241L407.982 305.025C407.694 304.071 407.402 303.12 407.105 302.171L406.39 302.395L405.674 302.619C405.969 303.563 406.26 304.509 406.546 305.458L407.264 305.241ZM405.484 299.547L406.197 299.316C405.89 298.366 405.578 297.418 405.261 296.473L404.55 296.711L403.839 296.949C404.154 297.89 404.464 298.833 404.77 299.777L405.484 299.547ZM403.589 293.887L404.298 293.642C403.973 292.701 403.642 291.762 403.308 290.825L402.601 291.077L401.895 291.329C402.228 292.262 402.557 293.196 402.881 294.133L403.589 293.887ZM401.585 288.276L402.289 288.017C401.944 287.08 401.594 286.145 401.239 285.212L400.538 285.478L399.837 285.744C400.19 286.673 400.538 287.603 400.882 288.536L401.585 288.276ZM399.464 282.693L400.163 282.42C399.799 281.491 399.431 280.565 399.059 279.641L398.363 279.922L397.668 280.202C398.038 281.121 398.404 282.043 398.766 282.966L399.464 282.693ZM397.236 277.164L397.929 276.876C397.547 275.956 397.161 275.038 396.77 274.122L396.08 274.416L395.39 274.71C395.779 275.622 396.163 276.535 396.543 277.451L397.236 277.164ZM394.895 271.675L395.582 271.374C395.181 270.46 394.776 269.548 394.367 268.639L393.683 268.947L392.999 269.255C393.407 270.16 393.81 271.067 394.208 271.976L394.895 271.675ZM392.445 266.234L393.126 265.92C392.708 265.016 392.285 264.114 391.859 263.215L391.181 263.536L390.504 263.858C390.928 264.752 391.349 265.65 391.764 266.549L392.445 266.234ZM389.889 260.849L390.564 260.52C390.127 259.623 389.685 258.728 389.24 257.836L388.569 258.171L387.898 258.506C388.341 259.394 388.78 260.284 389.215 261.177L389.889 260.849ZM387.223 255.508L387.89 255.166C387.436 254.279 386.978 253.394 386.515 252.512L385.851 252.86L385.187 253.208C385.647 254.086 386.103 254.966 386.555 255.849L387.223 255.508ZM384.454 250.228L385.114 249.873C384.642 248.994 384.166 248.119 383.686 247.246L383.029 247.607L382.372 247.969C382.85 248.837 383.323 249.709 383.793 250.583L384.454 250.228ZM381.577 244.999L382.231 244.631C381.741 243.762 381.248 242.896 380.75 242.032L380.1 242.407L379.45 242.781C379.946 243.64 380.437 244.502 380.924 245.367L381.577 244.999ZM378.598 239.831L379.244 239.45C378.738 238.591 378.228 237.736 377.714 236.883L377.072 237.271L376.429 237.658C376.941 238.507 377.449 239.358 377.952 240.212L378.598 239.831ZM375.518 234.724L376.156 234.33C375.632 233.481 375.105 232.635 374.573 231.791L373.938 232.191L373.304 232.591C373.833 233.431 374.358 234.273 374.879 235.117L375.518 234.724ZM372.335 229.676L372.965 229.27C372.425 228.432 371.881 227.597 371.333 226.765L370.707 227.178L370.08 227.59C370.626 228.418 371.167 229.249 371.704 230.082L372.335 229.676ZM369.054 224.697L369.677 224.278C369.12 223.451 368.559 222.626 367.994 221.805L367.376 222.23L366.758 222.654C367.32 223.472 367.878 224.292 368.432 225.116L369.054 224.697ZM365.673 219.779L366.287 219.348C365.714 218.532 365.137 217.719 364.556 216.91L363.947 217.347L363.337 217.784C363.915 218.59 364.489 219.398 365.059 220.21L365.673 219.779ZM362.197 214.932L362.802 214.489C362.213 213.685 361.621 212.884 361.024 212.087L360.423 212.536L359.823 212.985C360.416 213.779 361.006 214.575 361.592 215.375L362.197 214.932ZM358.625 210.155L359.221 209.7C358.616 208.907 358.007 208.117 357.394 207.331L356.803 207.792L356.211 208.253C356.821 209.035 357.427 209.821 358.028 210.61L358.625 210.155ZM354.958 205.448L355.545 204.981C354.925 204.201 354.301 203.424 353.673 202.65L353.091 203.123L352.508 203.595C353.133 204.365 353.754 205.138 354.371 205.915L354.958 205.448ZM351.201 200.816L351.778 200.338C351.142 199.57 350.503 198.805 349.86 198.044L349.287 198.528L348.714 199.011C349.354 199.769 349.99 200.53 350.623 201.295L351.201 200.816ZM347.35 196.258L347.918 195.768C347.268 195.013 346.613 194.262 345.955 193.513L345.392 194.008L344.829 194.503C345.484 195.248 346.135 195.996 346.782 196.748L347.35 196.258ZM343.412 191.778L343.97 191.277C343.305 190.535 342.636 189.797 341.963 189.061L341.41 189.568L340.856 190.074C341.526 190.805 342.191 191.54 342.853 192.279L343.412 191.778ZM339.385 187.376L339.934 186.865C339.253 186.136 338.57 185.411 337.883 184.688L337.339 185.206L336.796 185.723C337.48 186.441 338.16 187.163 338.837 187.888L339.385 187.376ZM335.272 183.055L335.81 182.533C335.116 181.818 334.418 181.106 333.717 180.398L333.184 180.925L332.651 181.453C333.349 182.158 334.043 182.866 334.734 183.578L335.272 183.055ZM331.075 178.816L331.603 178.283C330.895 177.582 330.183 176.884 329.468 176.19L328.945 176.728L328.423 177.266C329.134 177.957 329.843 178.651 330.547 179.349L331.075 178.816ZM326.795 174.661L327.312 174.118C326.59 173.431 325.864 172.747 325.136 172.067L324.624 172.615L324.112 173.163C324.837 173.84 325.559 174.52 326.278 175.204L326.795 174.661ZM322.433 170.591L322.939 170.037C322.204 169.365 321.465 168.696 320.723 168.03L320.222 168.589L319.722 169.147C320.46 169.809 321.195 170.475 321.927 171.144L322.433 170.591ZM317.992 166.608L318.487 166.045C317.739 165.387 316.987 164.733 316.232 164.082L315.742 164.65L315.253 165.218C316.004 165.866 316.752 166.517 317.497 167.172L317.992 166.608ZM313.473 162.714L313.957 162.141C313.195 161.498 312.43 160.858 311.662 160.222L311.184 160.8L310.706 161.378C311.47 162.01 312.231 162.647 312.989 163.287L313.473 162.714ZM308.878 158.91L309.35 158.327C308.576 157.699 307.799 157.075 307.019 156.455L306.553 157.042L306.086 157.629C306.862 158.246 307.635 158.867 308.405 159.492L308.878 158.91ZM304.209 155.197L304.669 154.606C303.883 153.993 303.094 153.384 302.301 152.779L301.846 153.376L301.391 153.972C302.18 154.574 302.965 155.18 303.748 155.789L304.209 155.197ZM299.465 151.577L299.914 150.976C299.116 150.38 298.315 149.787 297.511 149.199L297.068 149.804L296.625 150.409C297.425 150.994 298.222 151.584 299.016 152.178L299.465 151.577ZM294.654 148.054L295.091 147.444C294.281 146.863 293.468 146.286 292.652 145.713L292.221 146.327L291.79 146.941C292.602 147.511 293.411 148.085 294.217 148.663L294.654 148.054ZM289.771 144.624L290.196 144.006C289.374 143.441 288.55 142.881 287.722 142.324L287.304 142.946L286.885 143.568C287.708 144.122 288.529 144.68 289.346 145.242L289.771 144.624ZM284.823 141.294L285.235 140.667C284.403 140.119 283.568 139.575 282.731 139.035L282.324 139.666L281.918 140.296C282.752 140.833 283.582 141.375 284.41 141.92L284.823 141.294ZM279.809 138.062L280.209 137.428C279.366 136.896 278.52 136.368 277.671 135.844L277.277 136.482L276.883 137.121C277.728 137.642 278.57 138.167 279.409 138.696L279.809 138.062ZM274.73 134.929L275.117 134.287C274.264 133.772 273.409 133.262 272.551 132.756L272.17 133.402L271.789 134.048C272.643 134.552 273.494 135.059 274.342 135.571L274.73 134.929ZM269.594 131.9L269.968 131.25C269.105 130.753 268.239 130.259 267.37 129.77L267.002 130.423L266.634 131.077C267.498 131.564 268.36 132.055 269.219 132.55L269.594 131.9ZM264.393 128.971L264.755 128.314C263.882 127.834 263.006 127.358 262.128 126.886L261.773 127.547L261.418 128.207C262.292 128.677 263.163 129.151 264.032 129.628L264.393 128.971ZM259.141 126.149L259.489 125.485C258.607 125.022 257.722 124.564 256.835 124.11L256.493 124.778L256.151 125.445C257.034 125.897 257.914 126.353 258.792 126.814L259.141 126.149ZM253.83 123.431L254.165 122.76C253.273 122.315 252.378 121.874 251.48 121.437L251.152 122.111L250.824 122.785C251.716 123.22 252.607 123.659 253.495 124.102L253.83 123.431ZM248.464 120.819L248.786 120.142C247.887 119.715 246.985 119.292 246.081 118.874L245.766 119.555L245.451 120.236C246.351 120.652 247.248 121.072 248.143 121.497L248.464 120.819ZM243.053 118.317L243.361 117.633C242.452 117.224 241.541 116.819 240.627 116.418L240.326 117.105L240.025 117.792C240.934 118.191 241.841 118.594 242.745 119.001L243.053 118.317ZM237.584 115.92L237.879 115.23C236.963 114.839 236.045 114.453 235.124 114.072L234.837 114.764L234.55 115.457C235.465 115.837 236.379 116.221 237.29 116.61L237.584 115.92ZM232.079 113.637L232.359 112.941C231.435 112.569 230.509 112.201 229.581 111.838L229.307 112.536L229.034 113.234C229.958 113.596 230.879 113.962 231.799 114.332L232.079 113.637ZM226.522 111.462L226.789 110.761C225.856 110.406 224.921 110.056 223.983 109.711L223.724 110.415L223.465 111.119C224.397 111.462 225.328 111.81 226.256 112.163L226.522 111.462ZM220.924 109.399L221.176 108.692C220.239 108.358 219.3 108.028 218.358 107.702L218.113 108.411L217.868 109.12C218.805 109.444 219.739 109.772 220.671 110.105L220.924 109.399ZM215.29 107.45L215.528 106.739C214.582 106.422 213.635 106.11 212.685 105.803L212.454 106.517L212.223 107.23C213.168 107.536 214.111 107.846 215.052 108.161L215.29 107.45ZM209.606 105.611L209.83 104.895C208.88 104.598 207.929 104.306 206.976 104.018L206.759 104.736L206.543 105.455C207.491 105.741 208.438 106.031 209.382 106.326L209.606 105.611ZM203.903 103.891L204.113 103.17C203.156 102.892 202.198 102.619 201.237 102.35L201.035 103.072L200.833 103.795C201.789 104.062 202.742 104.334 203.694 104.611L203.903 103.891ZM198.156 102.282L198.351 101.558C197.386 101.298 196.42 101.043 195.452 100.793L195.265 101.52L195.077 102.246C196.04 102.495 197.001 102.748 197.961 103.006L198.156 102.282ZM192.379 100.789L192.56 100.061C191.594 99.8223 190.627 99.5878 189.658 99.358L189.485 100.088L189.312 100.817C190.276 101.046 191.238 101.279 192.199 101.517L192.379 100.789ZM186.579 99.4141L186.745 98.6826C185.772 98.4622 184.798 98.2465 183.822 98.0356L183.663 98.7687L183.505 99.5018C184.476 99.7116 185.446 99.9263 186.414 100.146L186.579 99.4141ZM180.737 98.1516L180.888 97.417C179.915 97.2169 178.94 97.0215 177.963 96.8308L177.82 97.5669L177.676 98.303C178.647 98.4927 179.617 98.6872 180.586 98.8862L180.737 98.1516ZM174.894 97.0109L175.031 96.2734C174.051 96.0923 173.071 95.916 172.088 95.7445L171.959 96.4833L171.83 97.2221C172.808 97.3928 173.784 97.5682 174.758 97.7484L174.894 97.0109ZM169.014 95.9842L169.136 95.2441C168.15 95.0821 167.162 94.9249 166.173 94.7725L166.059 95.5138L165.945 96.255C166.929 96.4067 167.911 96.5631 168.892 96.7243L169.014 95.9842ZM163.117 95.0754L163.224 94.333C162.24 94.1914 161.255 94.0546 160.268 93.9225L160.168 94.6659L160.069 95.4093C161.051 95.5407 162.031 95.6768 163.01 95.8177L163.117 95.0754ZM157.211 94.2851L157.303 93.5408C156.313 93.4183 155.322 93.3007 154.329 93.1879L154.244 93.9331L154.16 94.6783C155.148 94.7905 156.134 94.9076 157.119 95.0294L157.211 94.2851ZM151.269 93.61L151.346 92.864C150.358 92.7616 149.369 92.6641 148.378 92.5713L148.308 93.3181L148.238 94.0648C149.224 94.1571 150.209 94.2542 151.192 94.356L151.269 93.61ZM145.344 93.0554L145.407 92.308C144.415 92.2251 143.422 92.1469 142.427 92.0736L142.372 92.8216L142.317 93.5695C143.306 93.6425 144.295 93.7203 145.282 93.8028L145.344 93.0554ZM139.392 92.6167L139.44 91.8682C138.442 91.8046 137.444 91.7458 136.444 91.6919L136.404 92.4409L136.363 93.1898C137.358 93.2434 138.352 93.3019 139.344 93.3652L139.392 92.6167ZM133.43 92.2952L133.463 91.5459C132.471 91.5023 131.478 91.4634 130.484 91.4293L130.458 92.1789L130.432 92.9284C131.422 92.9623 132.41 93.001 133.397 93.0445L133.43 92.2952ZM127.479 92.0914L127.497 91.3416C126.501 91.3172 125.503 91.2977 124.504 91.283L124.493 92.033L124.482 92.7829C125.476 92.7975 126.469 92.8169 127.461 92.8412L127.479 92.0914ZM121.5 92.0037L121.504 91.2537C121.003 91.2512 120.502 91.25 120 91.25V92V92.75C120.499 92.75 120.998 92.7512 121.496 92.7537L121.5 92.0037Z" fill="black"/>
<path d="M357.753 341.6H357.677C357.376 341.6 357.151 341.424 357 341.073V322.781L357.038 304.489C357.289 304.163 357.527 304 357.753 304C358.079 304 358.33 304.188 358.506 304.565V341.073C358.305 341.424 358.079 341.6 357.828 341.6H357.753Z" fill="#FE9409"/>
<path d="M367.915 321.351C367.915 320.548 368.116 319.732 368.517 318.904C368.919 318.076 369.621 317.311 370.625 316.609C371.628 315.906 372.845 315.567 374.276 315.592C375.831 315.592 376.96 315.931 377.663 316.609C378.366 317.286 378.729 318.039 378.754 318.867C378.754 319.67 378.541 320.259 378.115 320.636C377.688 321.012 377.211 321.213 376.684 321.238C376.358 321.238 376.057 321.138 375.781 320.937C375.505 320.736 375.355 320.41 375.329 319.958C375.329 319.557 375.442 319.206 375.668 318.904C375.894 318.603 376.107 318.378 376.308 318.227C376.509 318.076 376.672 318.001 376.797 318.001C376.822 318.001 376.835 317.989 376.835 317.964C376.835 317.888 376.747 317.775 376.571 317.625C376.396 317.474 376.082 317.336 375.631 317.211C375.179 317.085 374.69 317.01 374.163 316.985C372.958 316.985 372.08 317.311 371.528 317.964C370.976 318.616 370.687 319.281 370.662 319.958C370.662 320.586 370.901 321.025 371.378 321.276C371.854 321.527 372.544 321.74 373.448 321.915C374.351 322.091 375.003 322.279 375.405 322.48C377.061 323.208 377.889 324.412 377.889 326.093C377.889 326.796 377.751 327.498 377.475 328.201C377.199 328.903 376.785 329.606 376.233 330.309C375.681 331.011 374.89 331.563 373.862 331.965C372.833 332.366 371.654 332.579 370.324 332.605C368.392 332.605 367.024 332.241 366.221 331.513C365.418 330.785 365.004 329.932 364.979 328.954C364.979 327.975 365.243 327.273 365.77 326.846C366.296 326.419 366.848 326.206 367.426 326.206C367.802 326.206 368.153 326.319 368.479 326.545C368.806 326.771 368.981 327.16 369.006 327.712C369.006 328.364 368.781 328.916 368.329 329.368C367.877 329.819 367.488 330.045 367.162 330.045C367.112 330.07 367.074 330.083 367.049 330.083C367.024 330.083 367.012 330.108 367.012 330.158C367.037 330.233 367.137 330.334 367.313 330.459C367.488 330.585 367.877 330.748 368.479 330.948C369.082 331.149 369.772 331.237 370.549 331.212C371.453 331.212 372.231 331.074 372.883 330.798C373.535 330.522 374.012 330.171 374.313 329.744C374.614 329.318 374.828 328.929 374.953 328.577C375.079 328.226 375.141 327.912 375.141 327.636C375.141 326.934 374.878 326.407 374.351 326.056C373.824 325.704 373.222 325.491 372.544 325.416C371.867 325.34 371.127 325.152 370.324 324.851C369.521 324.55 368.931 324.111 368.555 323.534C368.128 322.907 367.915 322.179 367.915 321.351Z" fill="#FE9409"/>
<path d="M382.706 304.677C382.732 304.502 382.807 304.351 382.932 304.226C383.058 304.1 383.233 304.025 383.459 304C383.71 304 383.923 304.125 384.099 304.376C384.174 304.552 385.354 307.638 387.637 313.635C389.92 319.632 391.074 322.693 391.1 322.819C391.125 322.944 389.983 326.005 387.675 332.002C385.366 337.999 384.174 341.085 384.099 341.261C383.923 341.512 383.71 341.638 383.459 341.638C383.258 341.638 383.095 341.575 382.97 341.449C382.844 341.324 382.757 341.161 382.706 340.96C382.706 340.835 383.836 337.786 386.094 331.814C388.377 325.867 389.519 322.869 389.519 322.819C389.519 322.769 388.377 319.77 386.094 313.823C383.836 307.852 382.706 304.803 382.706 304.677Z" fill="#FE9409"/>
<path d="M120 92L114.226 102L125.773 102L120 92ZM120 392L121 392L121 101L120 101L119 101L119 392L120 392Z" fill="black"/>
<path d="M420 392L410 386.226V397.774L420 392ZM120 392V393H411V392V391H120V392Z" fill="black"/>
<line x1="23.8501" y1="407.011" x2="478.85" y2="338.011" stroke="#FE9409" stroke-width="2" stroke-dasharray="4 4"/>
<line x1="24.1732" y1="375.015" x2="479.173" y2="455.015" stroke="#09FE21" stroke-width="2" stroke-dasharray="4 4"/>
<path d="M417 347L406.246 342.795L407.981 354.211L417 347ZM121 392L121.15 392.989L408.253 349.341L408.102 348.353L407.952 347.364L120.85 391.011L121 392Z" fill="#FE9409"/>
<path d="M412 443L403.147 435.587L401.153 446.961L412 443ZM121 392L120.827 392.985L402.962 442.431L403.135 441.446L403.308 440.461L121.173 391.015L121 392Z" fill="#09FE21"/>
<path d="M384.706 443.263H384.635C384.353 443.263 384.141 443.098 384 442.769V425.614L384.035 408.459C384.271 408.153 384.494 408 384.706 408C385.012 408 385.247 408.176 385.412 408.529V442.769C385.224 443.098 385.012 443.263 384.777 443.263H384.706Z" fill="black"/>
<path d="M390.777 428.932C390.777 426.555 391.671 424.296 393.46 422.155C395.248 420.013 397.26 418.931 399.496 418.907C400.696 418.907 401.755 419.484 402.673 420.637C403.049 419.931 403.59 419.578 404.296 419.578C404.602 419.578 404.873 419.672 405.108 419.86C405.344 420.048 405.461 420.284 405.461 420.566C405.461 420.872 405.026 422.755 404.155 426.214C403.285 429.673 402.837 431.626 402.814 432.073C402.814 432.662 402.896 433.05 403.061 433.238C403.226 433.426 403.473 433.532 403.802 433.556C404.014 433.532 404.249 433.426 404.508 433.238C405.002 432.768 405.485 431.638 405.955 429.85C406.097 429.379 406.214 429.132 406.308 429.108C406.355 429.085 406.473 429.073 406.661 429.073H406.803C407.25 429.073 407.473 429.179 407.473 429.391C407.473 429.532 407.414 429.85 407.297 430.344C407.179 430.838 406.944 431.473 406.591 432.25C406.238 433.026 405.861 433.615 405.461 434.015C405.155 434.321 404.779 434.568 404.332 434.756C404.143 434.803 403.861 434.827 403.485 434.827C402.684 434.827 402.014 434.65 401.473 434.297C400.931 433.944 400.578 433.579 400.414 433.203L400.202 432.673C400.178 432.65 400.131 432.662 400.061 432.709C400.014 432.756 399.967 432.803 399.919 432.85C398.531 434.168 397.119 434.827 395.684 434.827C394.389 434.827 393.248 434.356 392.26 433.415C391.271 432.473 390.777 430.979 390.777 428.932ZM402.002 422.896C402.002 422.755 401.943 422.496 401.826 422.119C401.708 421.743 401.437 421.331 401.014 420.884C400.59 420.437 400.049 420.201 399.39 420.178C398.566 420.178 397.778 420.543 397.025 421.272C396.272 422.002 395.684 422.955 395.26 424.131C394.578 425.99 394.095 427.92 393.813 429.92C393.813 429.991 393.813 430.12 393.813 430.308C393.813 430.497 393.801 430.638 393.778 430.732C393.778 431.791 393.989 432.52 394.413 432.92C394.837 433.321 395.342 433.532 395.931 433.556C396.825 433.556 397.707 433.168 398.578 432.391C399.449 431.614 399.967 431.014 400.131 430.591C400.178 430.497 400.496 429.238 401.084 426.814C401.673 424.39 401.979 423.084 402.002 422.896Z" fill="black"/>
<path d="M410.227 408.635C410.25 408.471 410.321 408.329 410.438 408.212C410.556 408.094 410.721 408.024 410.932 408C411.168 408 411.368 408.118 411.533 408.353C411.603 408.518 412.709 411.412 414.851 417.036C416.992 422.661 418.074 425.531 418.098 425.649C418.122 425.767 417.051 428.638 414.886 434.262C412.721 439.886 411.603 442.78 411.533 442.945C411.368 443.18 411.168 443.298 410.932 443.298C410.744 443.298 410.591 443.239 410.474 443.122C410.356 443.004 410.274 442.851 410.227 442.663C410.227 442.545 411.285 439.686 413.403 434.085C415.545 428.508 416.615 425.696 416.615 425.649C416.615 425.602 415.545 422.79 413.403 417.213C411.285 411.612 410.227 408.753 410.227 408.635Z" fill="black"/>
<path d="M73.7875 143.265H73.7088C73.3938 143.265 73.1575 143.1 73 142.77V125.615L73.0394 108.459C73.3019 108.153 73.5513 108 73.7875 108C74.1288 108 74.3913 108.176 74.575 108.529V142.77C74.365 143.1 74.1288 143.265 73.8663 143.265H73.7875Z" fill="black"/>
<path d="M82.1352 111.636C82.1352 111.401 82.1877 111.13 82.2927 110.824C82.3977 110.518 82.5552 110.365 82.7652 110.365C82.7915 110.365 83.7365 110.306 85.6003 110.189C87.4641 110.071 88.4222 110 88.4748 109.977C88.7898 109.977 88.9473 110.083 88.9473 110.294C88.9473 110.506 88.501 112.189 87.6085 115.342C87.3985 116.143 87.1753 116.966 86.9391 117.813C86.7028 118.661 86.506 119.296 86.3484 119.72L86.1909 120.39C86.1909 120.461 86.2697 120.426 86.4272 120.284C87.7135 119.343 89.0391 118.872 90.4042 118.872C92.0317 118.872 93.3442 119.414 94.3418 120.496C95.3393 121.579 95.8512 122.944 95.8774 124.591C95.8774 127.203 94.8405 129.568 92.7667 131.686C90.6929 133.804 88.4616 134.863 86.0728 134.863C84.7603 134.863 83.5659 134.416 82.4896 133.522C81.4133 132.628 80.8621 131.18 80.8358 129.18V128.862C80.8358 128.368 80.9408 127.686 81.1508 126.815C81.3608 125.944 82.004 123.626 83.0802 119.861C84.3928 115.225 85.049 112.765 85.049 112.483C85.049 112.201 84.5503 112.036 83.5528 111.989C83.4215 111.989 83.3165 111.989 83.2377 111.989H83.0409C82.7784 111.989 82.6077 111.989 82.529 111.989C82.4502 111.989 82.3584 111.954 82.2533 111.883C82.1483 111.812 82.109 111.73 82.1352 111.636ZM92.4911 123.002V122.791C92.4911 121.049 91.6905 120.178 90.0892 120.178C89.6429 120.178 89.1835 120.273 88.711 120.461C88.2385 120.649 87.8054 120.896 87.4116 121.202C87.0178 121.508 86.6766 121.791 86.3878 122.049C86.0991 122.308 85.8628 122.567 85.6791 122.826L85.4428 123.108L84.6159 126.144C84.0384 128.168 83.7496 129.604 83.7496 130.451C83.7496 131.58 84.0646 132.428 84.6947 132.992C85.1147 133.369 85.6397 133.557 86.2697 133.557C87.136 133.557 88.0154 133.181 88.9079 132.428C89.5642 131.886 90.0892 131.227 90.4829 130.451C90.8767 129.674 91.3098 128.439 91.7823 126.744C92.2548 125.05 92.4911 123.803 92.4911 123.002Z" fill="black"/>
<path d="M98.3187 108.635C98.345 108.471 98.4237 108.329 98.555 108.212C98.6862 108.094 98.87 108.024 99.1062 108C99.3688 108 99.5919 108.118 99.7756 108.353C99.8544 108.518 101.088 111.412 103.477 117.037C105.866 122.661 107.073 125.532 107.1 125.65C107.126 125.768 105.931 128.639 103.516 134.263C101.101 139.888 99.8544 142.782 99.7756 142.947C99.5919 143.182 99.3688 143.3 99.1062 143.3C98.8962 143.3 98.7256 143.241 98.5944 143.124C98.4631 143.006 98.3712 142.853 98.3187 142.665C98.3187 142.547 99.5 139.688 101.863 134.087C104.251 128.509 105.446 125.697 105.446 125.65C105.446 125.603 104.251 122.791 101.863 117.213C99.5 111.612 98.3187 108.753 98.3187 108.635Z" fill="black"/>
<path d="M296.861 447.348C296.861 449.888 296.154 452.34 294.741 454.703C293.327 457.067 291.505 458.955 289.274 460.369C287.043 461.783 284.757 462.489 282.416 462.489C280.273 462.489 278.44 461.86 276.916 460.601C275.392 459.342 274.431 457.509 274.033 455.101C274.011 454.924 274 454.449 274 453.676C274 451.423 274.53 449.281 275.59 447.249C276.651 445.217 278.075 443.416 279.864 441.848C282.603 439.573 285.353 438.435 288.114 438.435C288.954 438.435 289.484 438.447 289.705 438.469C291.847 438.778 293.57 439.728 294.873 441.318C296.176 442.908 296.839 444.918 296.861 447.348ZM293.449 445.99C293.449 444.024 292.941 442.489 291.924 441.384C290.908 440.28 289.638 439.728 288.114 439.728C286.347 439.728 284.646 440.39 283.012 441.716C281.245 443.107 279.898 445.062 278.97 447.58C278.042 450.098 277.567 452.439 277.545 454.604C277.545 456.592 278.02 458.171 278.97 459.342C279.92 460.512 281.179 461.109 282.747 461.131C284.735 461.131 286.623 460.258 288.412 458.514C290.202 456.769 291.56 454.394 292.488 451.39C293.128 449.292 293.449 447.492 293.449 445.99Z" fill="#09FE21"/>
<path d="M300.387 470.525C300.418 470.525 300.465 470.541 300.528 470.572C300.59 470.603 300.676 470.627 300.785 470.642C300.895 470.658 300.988 470.666 301.067 470.666C301.27 470.666 301.457 470.564 301.629 470.361C301.801 470.158 301.925 469.932 302.004 469.682C302.16 469.26 302.425 468.065 302.8 466.098C303.175 464.13 303.534 462.256 303.877 460.476C304.221 458.696 304.393 457.798 304.393 457.782V457.712H303.292C302.558 457.712 302.167 457.696 302.121 457.665C302.058 457.618 302.027 457.54 302.027 457.431L302.191 456.775C302.222 456.697 302.285 456.658 302.378 456.658C302.472 456.658 302.839 456.65 303.479 456.634C304.229 456.634 304.604 456.627 304.604 456.611C304.604 456.58 304.674 456.189 304.814 455.44C304.955 454.69 305.049 454.237 305.096 454.081C305.673 451.504 306.813 450.216 308.515 450.216C309.093 450.247 309.57 450.419 309.944 450.731C310.319 451.044 310.507 451.458 310.507 451.973C310.507 452.535 310.343 452.941 310.015 453.191C309.687 453.441 309.359 453.574 309.031 453.589C308.344 453.589 308 453.261 308 452.605C308 452.309 308.086 452.051 308.258 451.832C308.43 451.614 308.617 451.45 308.82 451.34L309.031 451.223C308.781 451.13 308.547 451.083 308.328 451.083C308.141 451.083 307.961 451.161 307.789 451.317C307.618 451.473 307.5 451.692 307.438 451.973C307.329 452.426 307.204 453.035 307.063 453.8C306.923 454.565 306.798 455.213 306.688 455.744C306.579 456.275 306.524 456.556 306.524 456.588C306.524 456.619 306.954 456.634 307.813 456.634C308.515 456.634 308.922 456.642 309.031 456.658C309.14 456.673 309.226 456.72 309.289 456.798C309.304 456.861 309.289 456.994 309.242 457.197C309.195 457.4 309.156 457.525 309.125 457.571C309.093 457.649 309.023 457.688 308.914 457.688C308.804 457.688 308.383 457.696 307.649 457.712H306.337L305.798 460.57C305.049 464.443 304.526 466.863 304.229 467.831C303.807 469.159 303.261 470.142 302.589 470.783C302.011 471.282 301.441 471.532 300.879 471.532C300.379 471.532 299.927 471.384 299.521 471.087C299.115 470.791 298.911 470.369 298.911 469.822C298.911 469.245 299.075 468.823 299.403 468.557C299.731 468.292 300.059 468.159 300.387 468.159C301.074 468.159 301.418 468.487 301.418 469.143C301.418 469.44 301.332 469.697 301.16 469.916C300.988 470.135 300.801 470.299 300.598 470.408L300.387 470.525Z" fill="#09FE21"/>
<path d="M321.541 456.559C321.541 454.328 322.381 452.207 324.059 450.197C325.738 448.187 327.626 447.171 329.725 447.149C331.05 447.149 332.066 447.724 332.773 448.872C332.795 448.85 332.85 448.784 332.939 448.673C333.027 448.563 333.148 448.441 333.303 448.309C333.458 448.176 333.634 448.044 333.833 447.911C334.584 447.381 335.092 447.116 335.357 447.116C335.446 447.116 335.523 447.149 335.589 447.215C335.655 447.282 335.689 447.337 335.689 447.381C335.689 447.58 334.927 450.728 333.402 456.824C331.834 463.097 331.05 466.277 331.05 466.366C331.05 466.543 331.547 466.642 332.541 466.664H333.369C333.502 466.841 333.568 466.94 333.568 466.962C333.568 466.984 333.535 467.183 333.469 467.559C333.38 467.846 333.27 468.056 333.137 468.188H332.707C332.022 468.144 330.829 468.122 329.128 468.122C328.51 468.122 327.947 468.122 327.439 468.122C326.931 468.122 326.522 468.122 326.213 468.122C325.904 468.122 325.716 468.133 325.65 468.155C325.34 468.155 325.186 468.067 325.186 467.89C325.186 467.824 325.208 467.658 325.252 467.393C325.34 467.04 325.418 466.83 325.484 466.763C325.55 466.697 325.771 466.664 326.147 466.664C327.207 466.664 327.847 466.587 328.068 466.432C328.245 466.322 328.554 465.35 328.996 463.516C329.438 461.683 329.67 460.744 329.692 460.7C329.692 460.678 329.614 460.711 329.46 460.8C328.4 461.661 327.295 462.092 326.147 462.092C324.932 462.092 323.86 461.65 322.933 460.767C322.005 459.883 321.541 458.48 321.541 456.559ZM332.11 450.959C331.602 449.214 330.774 448.342 329.625 448.342C328.852 448.342 328.112 448.684 327.406 449.369C326.699 450.054 326.147 450.948 325.749 452.053C325.108 453.798 324.656 455.609 324.391 457.486C324.391 457.553 324.391 457.674 324.391 457.851C324.391 458.028 324.38 458.16 324.357 458.248C324.357 459.242 324.556 459.927 324.954 460.303C325.351 460.678 325.826 460.877 326.378 460.899C327.571 460.899 328.797 460.104 330.056 458.514L330.321 458.149L332.11 450.959Z" fill="#09FE21"/>
<path d="M337.473 453.027C338.348 451.762 339.543 451.13 341.057 451.13C341.807 451.13 342.557 451.333 343.306 451.739C344.056 452.145 344.665 452.863 345.133 453.894C345.711 455.19 346 456.97 346 459.234C346 461.655 345.664 463.506 344.993 464.786C344.68 465.442 344.251 465.965 343.704 466.356C343.158 466.746 342.682 466.988 342.275 467.082C341.869 467.175 341.471 467.23 341.081 467.246C340.675 467.246 340.269 467.199 339.863 467.105C339.457 467.011 338.98 466.762 338.434 466.356C337.887 465.949 337.458 465.426 337.146 464.786C336.474 463.506 336.138 461.655 336.138 459.234C336.138 456.517 336.583 454.448 337.473 453.027ZM342.744 452.746C342.275 452.246 341.721 451.996 341.081 451.996C340.425 451.996 339.863 452.246 339.394 452.746C339.004 453.152 338.746 453.714 338.621 454.432C338.496 455.151 338.434 456.65 338.434 458.93C338.434 461.397 338.496 463.021 338.621 463.802C338.746 464.583 339.027 465.2 339.465 465.653C339.902 466.121 340.441 466.356 341.081 466.356C341.706 466.356 342.236 466.121 342.674 465.653C343.127 465.184 343.408 464.528 343.517 463.685C343.626 462.842 343.689 461.257 343.704 458.93C343.704 456.666 343.642 455.174 343.517 454.456C343.392 453.738 343.134 453.168 342.744 452.746Z" fill="#09FE21"/>
</svg>
